<svg xmlns="http://www.w3.org/2000/svg" width="1080" height="1080" viewBox="0 0 1080 1080">
  <path id="Forma_3" data-name="Forma 3" fill="#06c2b5" class="cls-1" d="M49.221,788.706c4.261,1.351,20.966-43.3,46.083-78.084a338.844,338.844,0,0,1,58.106-62.067l-20.037,54.058a572.728,572.728,0,0,0-14.025,64.069c-2.863,17.943-4.862,35.92-6.011,54.059l32.058-46.05a31.667,31.667,0,0,1,18.033-12.013,30.9,30.9,0,0,1,14.025,0l-12.022,56.061a366.358,366.358,0,0,0,2,120.129l14.025-36.039a271.9,271.9,0,0,1,38.069-60.064,294.593,294.593,0,0,1,44.08-42.046c61.727-48.148,190.079-97.9,278.5-126.136L536.1,518.414,526.084,162.029a483.734,483.734,0,0,0-128.232,42.046c-47.7,23.476-114.54,71.626-176.319,146.157-37.481,45.217-71.89,100.217-102.185,170.184C103.9,556.1,83.446,627.351,67.254,690.6,63,707.211,42.957,786.72,49.221,788.706Z"/>
  <path id="Forma_3_copiar" data-name="Forma 3 copiar" fill="#06c2b5" class="cls-1" d="M1030.78,788.706c-4.26,1.351-20.96-43.3-46.063-78.084a338.786,338.786,0,0,0-58.08-62.067l20.028,54.058a573.151,573.151,0,0,1,14.019,64.069c2.862,17.943,4.859,35.92,6.008,54.059l-32.044-46.05a31.652,31.652,0,0,0-18.025-12.013,30.873,30.873,0,0,0-14.019,0l12.017,56.061a366.538,366.538,0,0,1-2,120.129L898.6,902.829a271.938,271.938,0,0,0-38.052-60.064,294.5,294.5,0,0,0-44.06-42.046c-61.7-48.148-189.995-97.9-278.381-126.136l6.008-156.169,10.014-356.385A483.36,483.36,0,0,1,682.3,204.075c47.681,23.476,114.489,71.626,176.241,146.157,37.464,45.217,71.858,100.217,102.14,170.184C976.125,556.1,996.57,627.351,1012.75,690.6,1017.01,707.211,1037.04,786.72,1030.78,788.706Z"/>
  <path id="Forma_4" data-name="Forma 4" fill="#06c2b5" class="cls-1" d="M526.084,162.029h28.051l24.043,34.037-8.014,40.043-65.118-2-3-39.042Z"/>
  <path id="Elipse_1" data-name="Elipse 1" fill="#06c2b5" class="cls-1" d="M241.4,135c65.2,0,118.047,53.112,118.047,118.628S306.6,372.256,241.4,372.256,123.355,319.145,123.355,253.628,176.207,135,241.4,135Z"/>
  <path id="Elipse_2" data-name="Elipse 2" fill="#6dfff9" class="cls-2" d="M253.994,176.638c44.767,0,81.059,39.042,81.059,87.2s-36.292,87.2-81.059,87.2-81.059-39.043-81.059-87.2S209.226,176.638,253.994,176.638Z"/>
  <path id="Elipse_1_copiar" data-name="Elipse 1 copiar" fill="#06c2b5" class="cls-1" d="M832.806,135c-65.2,0-118.047,53.112-118.047,118.628S767.61,372.256,832.806,372.256s118.047-53.111,118.047-118.628S898,135,832.806,135Z"/>
  <path id="Elipse_2_copiar" data-name="Elipse 2 copiar" fill="#6dfff9" class="cls-2" d="M817.853,176.638c-44.767,0-81.059,39.042-81.059,87.2s36.292,87.2,81.059,87.2,81.059-39.043,81.059-87.2S862.621,176.638,817.853,176.638Z"/>
  <path id="Forma_2" data-name="Forma 2" fill="#06c2b5" class="cls-1" d="M175.449,579.48A627.22,627.22,0,0,1,202.5,404.291a141.919,141.919,0,0,1,24.044-54.059c6.5-8.907,12.509-14.774,20.036-22.023,17.018-16.391,27.148-31.666,45.082-47.051a309.267,309.267,0,0,1,49.089-34.037c56.122-31.745,128.133-46.3,204.37-46.05,61.4,0.2,115.23,10.772,162.274,28.781,11.976,4.585,23.617,9.65,35.083,15.267l63.114,45.049q18.033,20.02,36.065,40.043l14.026,16.017c2.844,5.291,5.478,10.554,8.014,16.017,18.194,39.185,23.8,73.629,28.051,105.114,5.473,40.565,10.478,81.5,14.025,119.129q-148.311-1.589-296.54-3.041Q392.251,581.32,175.449,579.48Z"/>
  <path id="Forma_1" data-name="Forma 1" stroke="#06c2b5" stroke-width="20px" fill="#fff" class="cls-3" d="M325.721,885.811a318.257,318.257,0,0,0,93.169,39.042c23.2,5.656,65.017,9.2,105.14,9.977,3.387,0.065,6.863.114,10.075,0.133,47.211,0.268,88.9-3.378,123.217-11.111,51.916-11.7,98.812-33.154,118.214-47.051,66.5-47.634,101.632-127.117,115.39-200.944,6.626-35.551,7.337-65.214,4.372-91.736-2.683-24-18.56-76.331-43.715-124.5-27.734-53.1-58.685-85.557-85.246-100.472-18.928-10.629-34.234-14.562-48.087-15.289-16.493-.865-58.921,11.41-100.545,48.052-33.406,29.407-60.561,65.738-80.874,107.025l-19.672-37.131a401.192,401.192,0,0,0-74.316-78.631c-34.246-27.4-61.725-37.687-83.06-37.131-15.1.394-41.805,8.376-69.945,30.579-23.172,18.283-49.428,49.986-72.13,96.1-15.234,30.947-26.86,63.62-30.6,83-4.468,23.144-4.574,80.9,8.743,137.6,11.915,50.73,33.873,98.328,46.721,116.4C260.937,835.56,287.108,861.694,325.721,885.811ZM796.574,866.79"/>
  <path id="Boca" stroke="#363636" stroke-width="4px" fill="#404040" class="cls-4" d="M536.19,679.3s7.847-8.941,6.469,0,0,27.349,0,27.349c5.828,14.11,19.183,23.232,33.639,23.443A37.09,37.09,0,0,0,608,712.506h1.941l1.293,1.3v1.954a41,41,0,0,1-71.159-5.21h-1.293c-7.285,14.828-21.926,24.12-37.521,24.094a41.65,41.65,0,0,1-32.991-16.931l-1.294-3.256,0.647-1.953,1.293-.651,1.294,0.651a37.883,37.883,0,0,0,31.051,17.582c22.373,0.3,33.232-18.124,34.908-23.353C539.534,694.544,529.1,643.054,536.19,679.3Z"/>
  <path id="Boca_copiar" data-name="Boca copiar" stroke="#363636" stroke-width="4px" fill="#404040" class="cls-4" d="M542.012,682.3s-7.847-8.942-6.469,0,0,27.349,0,27.349c-5.828,14.11-19.183,23.232-33.639,23.442a37.09,37.09,0,0,1-31.7-17.582h-1.94l-1.294,1.3v1.954a41,41,0,0,0,71.159-5.209h1.294c7.284,14.828,21.925,24.119,37.52,24.093a41.653,41.653,0,0,0,32.992-16.93l1.293-3.256-0.647-1.954-1.293-.651-1.294.651a37.88,37.88,0,0,1-31.051,17.582c-22.373.3-33.232-18.124-34.908-23.352C538.668,697.547,549.1,646.057,542.012,682.3Z"/>
  <path id="Nariz" fill="#404040" class="cls-5" d="M538.116,629.533c25.1,0,57.58,16.877,57.088,31.977s-44.785,38.2-56.1,39.085-56.6-23.984-57.088-37.308S513.017,629.533,538.116,629.533Z"/>
  <circle id="Olho_dir" data-name="Olho dir" fill="#404040" class="cls-6" cx="680.828" cy="569.344" r="44.922"/>
  <path id="brilho_dir" data-name="brilho dir" fill="#fff" class="cls-7" d="M695.8,535.7a18.7,18.7,0,1,1-18.713,18.7A18.7,18.7,0,0,1,695.8,535.7Z"/>
  <circle id="Olho_esq" data-name="Olho esq" fill="#404040" class="cls-6" cx="399.531" cy="569.344" r="44.906"/>
  <circle id="brilho_esq" data-name="brilho esq" fill="#fff" class="cls-8" cx="411.688" cy="554.391" r="18.719"/>
  <path id="Bochecha_esq" data-name="Bochecha esq" fill="#6dfff9" class="cls-2" d="M267.032,615.525c25.135,0,45.511,13.669,45.511,30.531s-20.376,30.531-45.511,30.531-45.511-13.669-45.511-30.531S241.9,615.525,267.032,615.525Z"/>
  <path id="Bochecha_dir" data-name="Bochecha dir" fill="#6dfff9" class="cls-2" d="M814.177,615.525c25.135,0,45.512,13.669,45.512,30.531s-20.377,30.531-45.512,30.531-45.511-13.669-45.511-30.531S789.042,615.525,814.177,615.525Z"/>
</svg>
