<svg xmlns="http://www.w3.org/2000/svg" width="1080" height="1080" viewBox="0 0 1080 1080">
  <path id="Forma_7" data-name="Forma 7" fill="#fff" class="cls-1" d="M165,682c1.506,9.667,4.69,21.22,6,33a165.764,165.764,0,0,1,1,21c-1.916,11.822-3.905,23.445-6,35-3.949,21.782-6.672,36.036-4,55,3.906,27.718,14.242,52.927,35,62,4.885,2.135,16.185,4.269,29,3a77.669,77.669,0,0,0,31-10q-1,9-2,18a109.308,109.308,0,0,0,8,48c7.355,17.716,18.814,29.942,24,33,28.305,16.69,63.362-3.037,75-11a91.806,91.806,0,0,0,21-20v14a67.273,67.273,0,0,0,2,16,75.506,75.506,0,0,0,8,19c6.009,10.44,11.526,20.89,17,27,10.527,11.74,23.157,17.94,28,19,10.03,2.19,20.444.59,30-4a78.71,78.71,0,0,0,18-9,88.91,88.91,0,0,0,14-12,106.489,106.489,0,0,0,14-18,86.907,86.907,0,0,0,9-15,69.124,69.124,0,0,0,4-10c1.185-4.759,1.189-8.381,4-13a57.4,57.4,0,0,1,4-5c2.633-3.243,4.088-5.116,6-5,1.606,0.1,3.136,1.61,5,5a43.024,43.024,0,0,1,3,7c0.55,2.276,2.62,7.015,4,11,1.351,3.9,3.018,8.828,4,11,3.778,8.357,8.419,13.89,13,19,5.265,5.87,11.786,13.2,15,16,19.7,17.14,37.793,21.63,48,21a51.359,51.359,0,0,0,21-6,56.188,56.188,0,0,0,12-9,64.015,64.015,0,0,0,11-14c2.377-3.32,4.587-6.69,6.679-10.19,2.21-3.7,4.3-7.615,6.321-11.81,2.863-5.951,5.244-12.234,6-16a65.293,65.293,0,0,0,1-13c0.022-3.694.022-7.34,0-11l6,7a115.8,115.8,0,0,0,30,20c14.5,6.647,29.526,8.51,35,8a56.887,56.887,0,0,0,24-8,87.624,87.624,0,0,0,16-18,88.85,88.85,0,0,0,14-37,90.21,90.21,0,0,0-1-42l11,6a65.048,65.048,0,0,0,19,6c10.06,1.532,18.14.65,24-1a51.476,51.476,0,0,0,15-7,87.166,87.166,0,0,0,14-16,91.373,91.373,0,0,0,12-26c2.2-7.527,3.789-18.2,4-30a145.518,145.518,0,0,0-3-32c-1.919-9.85-4.068-20.45-6-29a110.077,110.077,0,0,1-3-22,117.1,117.1,0,0,1,2-22c1.791-10.607,4.673-20.621,6-32a149.067,149.067,0,0,0,1-19V635c-0.777-15.747-2.1-31.233-4-47-6.469-53.557-18.335-101.974-35-146-14.8-39.105-34.224-76.98-48-96-31.877-44.013-74.307-79.921-123-103-17.606-8.345-38.848-15.777-63-22a429.916,429.916,0,0,0-225,4l-24,9c-7.822,3-15.444,6.316-23,10-21.737,10.6-43.984,25.136-68,46-26.935,23.4-47.4,47.5-63,72a312.545,312.545,0,0,0-22,41c-5.4,11.872-10.335,23.714-15,36-14.74,38.822-26.106,82.153-34,131-1.957,12.113-4.028,34.1-6,52a235.845,235.845,0,0,0-1,30C163.178,662.9,163.8,674.279,165,682Z"/>
  <path id="Forma_1" data-name="Forma 1" fill="#06c2b5" class="cls-2" d="M538.273,300.4a249.514,249.514,0,0,1,24.518-39.161c14.79-19.341,30.793-31.693,40.642-35.4,17.811-6.7,37.426-5.874,56.106.794l11.168,3.9a34.382,34.382,0,0,0,6.113-6.835,30.643,30.643,0,0,0,5.022-11.953A26.488,26.488,0,0,0,654.517,181.4l-15.034,1.353A37.965,37.965,0,0,0,653,167.33a36.448,36.448,0,0,0,3.47-20.108,33.768,33.768,0,0,0-31.324-30.048L612.488,121.9a78.572,78.572,0,0,0,13.581-27.24c5.883-21.769,4.137-36.766-3.9-46.029-6.488-7.479-22.187-14.4-49.5-10.5-44.6,6.36-73.661,42.793-85.712,62.141-19.038,30.568-24.817,66.4-21.015,98.926,1.416,12.123,4.83,25.912,10.639,41.275,11.168,29.539,28.579,56.721,51.181,80.8Z"/>
  <path id="Forma_8" data-name="Forma 8" fill="#06c2b5" class="cls-3" d="M424,616c-11.259-11.02-24.695-19.651-39-23-7.486-1.753-12.791-1.443-17,0-12.357,4.237-19.01,18.646-22,29-0.381,1.32-.71,2.637-1,4v9q1,5,2,10a87.621,87.621,0,0,0,13,15,91.862,91.862,0,0,0,27,17,417.838,417.838,0,0,0,70,23c12.32,2.878,24.554,5.856,37,9l44,10,32-6c8.389-1.943,16.643-3.923,25-6,16.529-4.107,32.607-8.373,49-13,7.82-2.04,15.422-4.353,23-7,5.806-2.029,11.828-4.38,18-7a148.3,148.3,0,0,0,30-17c5.493-4.071,9.75-7.98,13-14,7.063-13.082,4.774-27.154,1-36-4.418-10.357-10.356-16.26-17-19a28.843,28.843,0,0,0-11-2c-6.9-.043-14.87,2.11-25,8a109.094,109.094,0,0,0-21,16l-44-40a185.969,185.969,0,0,0-36-28c-6.229-3.6-12.506-6.9-19-10-5.292-2.522-10.555-4.825-16-7l-17,7a152.763,152.763,0,0,0-21,11c-7.049,4.418-16.909,12.228-26,20-2.7,2.307-5.331,4.61-8,7Z"/>
  <path id="Bochecha_esq" data-name="Bochecha esq" fill="#6dfff9" class="cls-2" d="M255.237,546.562c23.461,0,42.479,12.669,42.479,28.3s-19.018,28.3-42.479,28.3-42.48-12.668-42.48-28.3S231.776,546.562,255.237,546.562Z"/>
  <path id="Bochecha_dir" data-name="Bochecha dir" fill="#6dfff9" class="cls-2" d="M822.541,546.562c23.461,0,42.48,12.669,42.48,28.3s-19.019,28.3-42.48,28.3-42.479-12.668-42.479-28.3S799.08,546.562,822.541,546.562Z"/>
  <circle id="Olho_dir" data-name="Olho dir" fill="#404040" class="cls-4" cx="681.735" cy="476.813" r="45.265"/>
  <circle id="brilho_dir" data-name="brilho dir" fill="#fff" class="cls-5" cx="696.829" cy="461.656" r="18.859"/>
  <circle id="Olho_esq" data-name="Olho esq" fill="#404040" class="cls-4" cx="393.219" cy="476.813" r="45.25"/>
  <circle id="brilho_esq" data-name="brilho esq" fill="#fff" class="cls-5" cx="405.485" cy="461.656" r="18.859"/>
  <path id="Forma_5" data-name="Forma 5" fill="#6dfff9" class="cls-6" d="M222.848,725.394a106.788,106.788,0,0,0-11.023,59.312c1.448,13.136,8.335,52.448,36.859,65.269,10.952,4.922,31.279,6.153,58.621-8.113,24.373-12.718,42.653-35.017,53.635-61.871l0.036-5.655-5.333,1.38c-9.929,25.5-26.811,46.826-49.625,59.068-24.778,13.3-43.416,12.466-53.3,8.147-27.326-11.946-33.118-50.54-34.215-62.425a100.344,100.344,0,0,1,8.3-49.432q0.018-2.827.035-5.655Z"/>
  <path id="Forma_5_copiar" data-name="Forma 5 copiar" fill="#6dfff9" class="cls-6" d="M847.364,722.694c8.47,18.81,11.75,39.393,8.7,59.665-1.966,13.059-10.4,52.039-39.45,63.7-11.152,4.478-31.542,4.9-58.34-10.439-23.889-13.671-41.305-36.666-51.238-63.918l0.186-5.649,5.283,1.591c8.932,25.864,24.987,47.827,47.334,60.961,24.273,14.265,42.955,14.178,53.012,10.259,27.813-10.839,35.127-49.145,36.691-60.969a100.1,100.1,0,0,0-6.361-49.691q0.095-2.823.187-5.648Z"/>
  <path id="Forma_5_copiar_2" data-name="Forma 5 copiar 2" fill="#6dfff9" class="cls-6" d="M721.652,828.014a96.511,96.511,0,0,1-.94,54.783c-3.688,11.416-17.008,45.109-44.862,51.251-10.694,2.359-29.1-.3-50.965-18.026-19.489-15.805-31.782-39.009-36.716-64.917l1-5.036,4.52,2.211c4.237,24.514,15.457,46.59,33.637,61.685,19.746,16.395,36.571,19.093,46.2,17.074,26.622-5.585,38.832-38.841,41.978-49.209a90.657,90.657,0,0,0,1.578-45.494q0.5-2.518,1-5.036Z"/>
  <path id="Forma_5_copiar_3" data-name="Forma 5 copiar 3" fill="#6dfff9" class="cls-6" d="M353.962,826.484a96.415,96.415,0,0,0,1.367,54.821c3.787,11.4,17.4,45.008,45.382,50.928,10.741,2.274,29.18-.533,50.963-18.456,19.419-15.978,31.565-39.3,36.312-65.271l-1.04-5.032-4.515,2.249c-4.059,24.57-15.138,46.756-33.25,62.011-19.672,16.57-36.522,19.408-46.189,17.466-26.738-5.373-39.239-38.558-42.474-48.909a90.566,90.566,0,0,1-1.935-45.519q-0.521-2.516-1.04-5.032Z"/>
  <path id="Forma_5_copiar_4" data-name="Forma 5 copiar 4" fill="#6dfff9" class="cls-6" d="M473.652,772.406a65.784,65.784,0,0,0,11.015,44.177c5.85,8.693,25.6,33.994,55.084,34.878,11.321,0.339,29.577-4.507,48.58-22.055,16.939-15.643,25.195-36.215,25.462-57.895l-1.941-3.928-4.2,2.452c0.187,20.451-7.183,39.953-22.922,54.829-17.093,16.158-33.727,20.808-43.9,20.586-28.13-.614-46.667-25.724-51.774-33.65a62.021,62.021,0,0,1-9.959-36.568l-1.941-3.928Z"/>
</svg>
