<svg xmlns="http://www.w3.org/2000/svg" width="1080" height="1080" viewBox="0 0 1080 1080">
  <path id="Forma_8" data-name="Forma 8" fill="#6dfff9" class="cls-1" d="M545.134,986a221.381,221.381,0,0,1-57.274-8.037c-59.793-16.606-75.832-53.992-133.024-68.312-45.056-11.281-69.973,11.98-116.4-8.037-37.991-16.38-87.765-59.454-91.454-111.51-1.608-22.687,5.937-39.82-4.619-53.243-10.854-13.8-29.117-6.066-42.494-16.073C68.144,697.052,64.532,605.93,102.511,562c9.561-11.06,23.266-21,23.358-37,0.047-8.335-3.587-16.152-9.369-23.214A79.172,79.172,0,0,0,92.234,507,83.682,83.682,0,0,0,63.27,526c-8.367-62.222-.936-126.03,25.517-180.93,14.313-29.707,32.866-55.494,53.221-75.732a252.5,252.5,0,0,1,26.224-22.718c44.83-33.731,97.628-52.451,153.348-56.257l18.475-22.1c21.083-19.542,44.725-34.491,70.207-44.2,41.369-15.766,76.839-11.733,88.683-6.028,12.176,5.864,22.666,14.818,31.409,26.12l62.817,104.477Z"/>
  <path id="Forma_8_copiar" data-name="Forma 8 copiar" fill="#6dfff9" class="cls-1" d="M534.573,984a221.632,221.632,0,0,0,57.309-8.037c59.829-16.605,75.878-53.99,133.105-68.309,45.083-11.281,70.014,11.979,116.466-8.037,38.015-16.38,87.818-59.452,91.51-111.5,1.608-22.687-5.941-39.82,4.621-53.242,10.861-13.8,29.134-6.066,42.52-16.073,31.746-23.734,35.366-114.853-2.641-158.782-9.567-11.059-23.28-21-23.371-37-0.048-8.334,3.588-16.151,9.374-23.212a79.257,79.257,0,0,1,24.281,5.213,83.763,83.763,0,0,1,28.983,19c8.37-62.219.93-126.025-25.534-180.923-14.323-29.706-32.887-55.492-53.254-75.729A252.584,252.584,0,0,0,911.7,244.646c-44.857-33.729-97.687-52.449-153.44-56.255l-18.487-22.1c-21.095-19.541-44.752-34.49-70.25-44.2-41.394-15.765-76.884-11.732-88.736-6.028-12.183,5.864-22.679,14.817-31.427,26.119L486.508,246.656Z"/>
  <path id="Rpsto_meio" data-name="Rpsto meio" fill="#06c2b5" class="cls-2" d="M497.938,352l158.736,66L639.867,588,611.854,866l-69.1,64-76.566-38L387.756,610Z"/>
  <path id="Rosto_dir" data-name="Rosto dir" fill="#06c2b5" class="cls-2" d="M540.89,936l74.7-24c64.391-27.953,147.269-64.524,190.484-82,32.709-13.228,89.235-35.356,102.711-86,6.651-24.992,1.367-54.538-11.205-84A170.448,170.448,0,0,0,873.3,620c-26.191-32.875-63.3-60.791-100.844-82l70.964,18c-17.114-30.829-33.036-60.982-48.554-92-32.687-65.336-57.394-119.681-113.917-148-38.614-19.347-69.26-16.093-84.037-10-25.474,10.5-44.076,33.922-54.157,62Z"/>
  <path id="Rosto_esq" data-name="Rosto esq" fill="#06c2b5" class="cls-2" d="M539.022,934l-74.681-24.011c-64.376-27.965-147.234-64.552-190.439-82.036-32.7-13.234-89.214-35.371-102.687-86.038-6.649-25-1.366-54.563,11.2-84.037a170.559,170.559,0,0,1,24.272-40.018c26.184-32.889,63.282-60.818,100.82-82.036l-70.948,18.008c17.11-30.843,33.029-61.01,48.544-92.041,32.679-65.365,57.38-119.734,113.889-148.066,38.6-19.355,69.244-16.1,84.017-10,25.468,10.509,44.066,33.937,54.144,62.027Z"/>
  <path id="Forma_7" data-name="Forma 7" fill="#06c2b5" class="cls-2" d="M240.589,374.972c-6.87.6-12.206-6.4-19.452-14.474A73.778,73.778,0,0,1,209.3,342.406c-10.334-21.42-16.63-41.394-18.607-60.608a166.4,166.4,0,0,1,3.383-54.275l21.99-3.618a239.758,239.758,0,0,1,38.059,0c20.1,1.6,45.435,7.273,72.735,17.187a370.16,370.16,0,0,1,56.666,26.233l-6.766,3.618a318.721,318.721,0,0,0-70.2,44.325c-12.2,10.128-25.873,21.87-30.447,28.043-4.82,6.5-19.624,20.716-27.91,28.042A13.357,13.357,0,0,1,240.589,374.972Z"/>
  <path id="Forma_7_copiar" data-name="Forma 7 copiar" fill="#06c2b5" class="cls-2" d="M831.013,374.943c6.869,0.6,12.2-6.4,19.449-14.484A73.844,73.844,0,0,0,862.3,342.354c10.333-21.436,16.628-41.425,18.6-60.653a166.619,166.619,0,0,0-3.382-54.316l-21.987-3.621a239.577,239.577,0,0,0-38.054,0c-20.092,1.6-45.428,7.278-72.725,17.2A370,370,0,0,0,688.1,267.217l6.766,3.621A318.6,318.6,0,0,1,765.053,315.2c12.2,10.135,25.869,21.886,30.443,28.063,4.819,6.509,19.621,20.731,27.906,28.063A13.347,13.347,0,0,0,831.013,374.943Z"/>
  <path id="Forma_7_copiar_2" data-name="Forma 7 copiar 2" fill="#fff" class="cls-3" d="M819.694,364.637c5.357,0.563,9.611-4.8,15.371-10.964a57.14,57.14,0,0,0,9.472-13.885c8.338-16.493,13.5-31.921,15.289-46.82a128.706,128.706,0,0,0-1.962-42.218l-17.125-3.128a188.27,188.27,0,0,0-29.718-.55c-15.712.951-35.57,4.994-57.011,12.3a289.1,289.1,0,0,0-44.577,19.563q2.62,1.453,5.238,2.909A249.861,249.861,0,0,1,768.93,317.3c9.4,8.045,19.929,17.365,23.423,22.227,3.682,5.124,15.064,16.379,21.442,22.191A10.478,10.478,0,0,0,819.694,364.637Z"/>
  <path id="Forma_7_copiar_3" data-name="Forma 7 copiar 3" fill="#fff" class="cls-3" d="M252.047,364.981c-5.356.563-9.611-4.8-15.37-10.97a57.161,57.161,0,0,1-9.473-13.893c-8.338-16.5-13.5-31.937-15.289-46.844a128.838,128.838,0,0,1,1.962-42.24L231,247.9a188.283,188.283,0,0,1,29.719-.55c15.711,0.952,35.569,5,57.01,12.31a288.956,288.956,0,0,1,44.577,19.573l-5.238,2.91a249.877,249.877,0,0,0-54.259,35.471c-9.4,8.049-19.929,17.374-23.423,22.239-3.682,5.126-15.064,16.387-21.442,22.2A10.484,10.484,0,0,1,252.047,364.981Z"/>
  <path id="Boca" stroke="#363636" stroke-width="4px" fill="#404040" class="cls-4" d="M536.707,707.182s7.548-8.553,6.222,0,0,26.162,0,26.162a35.214,35.214,0,0,0,62.84,5.606h1.867l1.244,1.246v1.869a39.539,39.539,0,0,1-68.44-4.983H539.2c-7.007,14.184-21.088,23.073-36.087,23.047a40.127,40.127,0,0,1-31.731-16.2l-1.244-3.115,0.622-1.869,1.244-.623,1.245,0.623a36.473,36.473,0,0,0,29.864,16.819c21.518,0.287,31.962-17.337,33.574-22.339C539.923,721.768,529.889,672.513,536.707,707.182Z"/>
  <path id="Boca_copiar" data-name="Boca copiar" stroke="#363636" stroke-width="4px" fill="#404040" class="cls-4" d="M542.307,710.055s-7.548-8.553-6.222,0,0,26.162,0,26.162a35.214,35.214,0,0,1-62.84,5.606h-1.867l-1.244,1.246v1.869a39.539,39.539,0,0,0,68.44-4.984h1.244c7.007,14.185,21.088,23.073,36.087,23.048a40.125,40.125,0,0,0,31.731-16.2l1.244-3.114-0.622-1.869-1.244-.623-1.245.623a36.473,36.473,0,0,1-29.864,16.819c-21.518.287-31.962-17.337-33.574-22.339C539.091,724.64,549.125,675.386,542.307,710.055Z"/>
  <path id="Nariz" fill="#404040" class="cls-5" d="M540.46,649c27.94,0,64.1,16.384,63.548,31.043s-49.852,37.079-62.452,37.941-63-23.282-63.548-36.216S512.521,649,540.46,649Z"/>
  <circle id="Olho_dir" data-name="Olho dir" fill="#404040" class="cls-6" cx="656.5" cy="497.5" r="42.5"/>
  <circle id="brilho_dir" data-name="brilho dir" fill="#fff" class="cls-7" cx="670.672" cy="483.344" r="17.703"/>
  <circle id="Olho_esq" data-name="Olho esq" fill="#404040" class="cls-6" cx="414.5" cy="497.5" r="42.5"/>
  <path id="brilho_esq" data-name="brilho esq" fill="#fff" class="cls-3" d="M426.016,465.634a17.707,17.707,0,1,1-17.709,17.707A17.709,17.709,0,0,1,426.016,465.634Z"/>
  <path id="Bochecha_esq" data-name="Bochecha esq" fill="#fff" class="cls-3" d="M265.51,648.994c25.129,0,45.5,13.655,45.5,30.5s-20.372,30.5-45.5,30.5-45.5-13.655-45.5-30.5S240.38,648.994,265.51,648.994Z"/>
  <path id="Bochecha_dir" data-name="Bochecha dir" fill="#fff" class="cls-3" d="M813.512,648.994c25.129,0,45.5,13.655,45.5,30.5s-20.372,30.5-45.5,30.5-45.5-13.655-45.5-30.5S788.383,648.994,813.512,648.994Z"/>
</svg>
