<svg id="boca_ele" data-name="boca ele" xmlns="http://www.w3.org/2000/svg" width="1080" height="1080" viewBox="0 0 1080 1080">
  <path id="Orelha_esq" data-name="Orelha esq" fill="#06c2b5" class="cls-1" d="M404.961,208.8a146.281,146.281,0,0,0-19.971-36.144,115.953,115.953,0,0,0-19.97-24.731c-11.489-10.761-25.259-17.665-30.432-19.023a61.1,61.1,0,0,0-33.284.951c-15.493,4.769-27.1,16.362-30.432,19.975-11.358,12.33-22.3,21.576-33.284,34.242-6.419,7.4-22.316,22.281-34.235,34.241-12.346,12.39-23,22.565-37.088,33.291a303.3,303.3,0,0,1-38.04,24.73c-17.5,9.586-36.268,17.9-47.549,20.926-9.892,2.651-23.344,7.2-26.627,7.609-3.481.43-10.976,1.115-17.118,6.658-5.586,5.043-7.917,12.39-8.559,18.072-0.606,5.365.251,9.935,1.9,15.219a120.393,120.393,0,0,0,9.51,21.877c3.856,3.782,7.617,7.545,11.412,11.413a94.3,94.3,0,0,1,11.412,13.317c6.6,9.767,9.724,19.959,11.412,26.632,2.2,8.7,4.971,19.972,5.706,24.73,0.676,4.381.733,24.97,5.706,38.047,3.417,8.985,9.294,18.612,19.02,28.535,6.215,6.341,11.943,9.855,19.02,15.218,7.905,5.992,13.062,12.019,20.921,18.072a163.913,163.913,0,0,0,46.6,24.73c57.43,19.1,131.69-2.058,173.079-50.411,10.213-11.933,28.685-57.206,38.039-106.53,8.21-43.293,7.3-90.569,10.461-122.7C414.29,270.258,417.058,240.765,404.961,208.8Z"/>
  <path id="Orelha_dir" data-name="Orelha dir" fill="#06c2b5" class="cls-1" d="M674.687,208.716a146.116,146.116,0,0,1,19.98-36.12,115.864,115.864,0,0,1,19.979-24.714c11.494-10.755,25.27-17.654,30.446-19.011a61.192,61.192,0,0,1,33.3.951c15.5,4.765,27.115,16.35,30.445,19.961,11.364,12.322,22.31,21.562,33.3,34.219,6.421,7.4,22.326,22.266,34.251,34.219,12.352,12.381,23.009,22.55,37.105,33.269A303.565,303.565,0,0,0,951.55,276.2c17.509,9.579,36.285,17.891,47.571,20.912,9.9,2.649,23.359,7.2,26.639,7.6,3.48,0.43,10.98,1.114,17.13,6.654,5.58,5.039,7.92,12.381,8.56,18.06,0.61,5.362-.25,9.928-1.9,15.208a120.394,120.394,0,0,1-9.52,21.863c-3.86,3.78-7.62,7.54-11.42,11.406a94.429,94.429,0,0,0-11.41,13.307c-6.61,9.761-9.73,19.946-11.42,26.615-2.2,8.69-4.97,19.959-5.71,24.714-0.674,4.378-.731,24.952-5.706,38.021-3.418,8.979-9.3,18.6-19.029,28.516-6.218,6.337-11.949,9.849-19.028,15.208-7.909,5.988-13.069,12.011-20.931,18.06a164.081,164.081,0,0,1-46.62,24.714C831.3,586.147,757.005,565.008,715.6,516.687c-10.219-11.924-28.7-57.168-38.057-106.459-8.214-43.264-7.3-90.509-10.466-122.618C665.353,270.133,662.584,240.66,674.687,208.716Z"/>
  <path id="Ouvido_esq" data-name="Ouvido esq" fill="#fff" class="cls-2" d="M160.559,549.315c-2.312-1.069-5.044-2.447-7.608-3.8a200.291,200.291,0,0,1-31.382-20.926c-15.172-12.042-28.44-26.256-32.334-33.29a98.79,98.79,0,0,1-8.559-22.828c-4.534-17.967-1.564-29.742-6.657-47.558-2.332-8.157-6.471-16.92-12.363-26.633a156.443,156.443,0,0,0-11.412-16.17c-9.865-12.382-17.1-18.26-17.118-28.534s6.678-18.128,11.412-21.877c5.42-4.292,10.4-5.009,16.167-6.658,7.753-2.218,12.383-5.832,19.971-8.561,10.8-3.882,25.406-6.85,31.383-8.56,9.54-2.73,25.309-9.924,39.941-18.072,15.305-8.524,29.635-19.074,45.647-31.388,14.675-11.287,30.974-24.254,42.794-32.34,12.63-8.64,23.975-12.483,34.235-21.877,2.7-2.474,11.237-9.762,20.922-13.316,12.275-4.5,21.577-3.983,28.529-.951,9.417,4.107,13.989,12.374,16.167,16.17,9.439,16.448,20.721,27.515,29.48,45.655a245.627,245.627,0,0,1,19.02,56.119c12.762,60.3,3.743,108.5-6.657,133.162a192.588,192.588,0,0,1-89.392,96.068C254.853,552.6,198.755,566.983,160.559,549.315Z"/>
  <path id="Ouvido_dir" data-name="Ouvido dir" fill="#fff" class="cls-2" d="M916.452,549.878c2.314-1.069,5.049-2.448,7.616-3.805a200.531,200.531,0,0,0,31.416-20.931c15.188-12.045,28.47-26.262,32.368-33.3a98.764,98.764,0,0,0,8.568-22.834c4.54-17.97,1.566-29.749,6.66-47.569,2.34-8.159,6.48-16.923,12.38-26.639a155.742,155.742,0,0,1,11.42-16.174c9.88-12.385,17.12-18.265,17.14-28.541s-6.69-18.132-11.42-21.882c-5.43-4.294-10.42-5.01-16.19-6.66-7.76-2.218-12.39-5.833-19.99-8.562-10.808-3.884-25.433-6.852-31.416-8.563-9.551-2.73-25.336-9.926-39.984-18.076-15.322-8.526-29.667-19.079-45.7-31.4-14.69-11.289-31.007-24.259-42.839-32.347-12.644-8.642-24-12.486-34.272-21.882-2.706-2.475-11.249-9.764-20.944-13.32-12.288-4.5-21.6-3.984-28.56-.951-9.427,4.108-14,12.377-16.184,16.174-9.449,16.452-20.743,27.522-29.512,45.666a245.626,245.626,0,0,0-19.04,56.132c-12.775,60.315-3.746,108.525,6.664,133.194a192.7,192.7,0,0,0,89.488,96.091C822.057,553.161,878.215,567.55,916.452,549.878Z"/>
  <path id="Cabeça" fill="#06c2b5" class="cls-1" d="M745.412,227.823c-18.677-9.5-113.634-53.849-207.314-51.363-69.29,1.839-148.735,21.359-213.02,68.484-27.208,19.945-45.64,39.608-58.96,58.972-22.455,32.64-35.816,70.366-39.942,110.335l-9.509,30.437a618.8,618.8,0,0,1-36.138,57.069c-10.78,15.131-22.138,29.646-34.235,43.754L132.98,568.339a193.508,193.508,0,0,0,11.412,165.5c19.936,35.644,49.967,62.236,97,87.506,66.849,35.917,134.039,52.143,197.8,62.777,73.419,12.244,150.813,16.511,186.392,11.414,42.482-6.087,104.521-33.152,167.373-57.07,28.821-10.968,69.07-27.32,106.51-62.776,40.794-38.634,57.891-75.793,64.666-104.628,7.351-31.285,6.354-59.59,0-83.7-3.391-12.871-12.487-33.477-24.725-53.265a267.561,267.561,0,0,0-28.53-38.047l-20.921-28.534c-8.578-19.047-16.7-37.787-24.726-57.07C853.1,381.287,841.871,352.6,831,322.939l-17.118-26.632a149.764,149.764,0,0,0-32.333-43.754C771.163,242.884,759.639,235.058,745.412,227.823Z"/>
  <path id="Boca_copiar_2" data-name="Boca copiar 2" fill="#404040" class="cls-3" d="M513.758,739.576s21.948-16.7,14.764,2.943-12.355,62-12.355,62c6.927,34.64,33.285,61.395,66.18,68.448,29.157,6.251,59.536-3.721,80.284-25.437l4.429,0.883,2.364,3.541-0.882,4.428c-23.128,22.44-56.112,32.49-87.96,25.442-34.6-7.657-62.549-34.444-72.086-69.625l-1.476-.294-1.477-.294c-23.324,30.3-60.934,44.705-96.512,37.55-29.87-6.007-54.5-26.343-67.646-53.391L339.9,787.8l2.359-4.134,3.247-.888,2.659,2.065c10.861,27.03,34.055,47.829,62.922,53.985,50.923,10.858,84.028-25.969,90.216-37.059C514.5,775.663,513.951,654.188,513.758,739.576Z"/>
  <path id="Boca_copiar_3" data-name="Boca copiar 3" fill="#404040" class="cls-3" d="M527.045,742.225s-13.87-23.84-14.763-2.943-12.355,62-12.355,62c-19.676,29.336-54.276,43.94-87.361,37.84-29.325-5.407-53.56-26.266-64.4-54.279l-4.429-.883-3.542,2.364-0.882,4.429c12.76,29.593,39.37,51.523,71.486,57.226,34.894,6.2,70.973-7.827,93.266-36.663l1.476,0.295,1.477,0.294c9.927,36.93,39.143,64.655,74.744,71.69,29.89,5.906,60.435-3.431,82.942-23.372l4.424-6.793-0.594-4.723-2.658-2.065-3.247.888c-20.393,20.8-49.787,31.115-78.808,25.731-51.193-9.5-67.652-56.2-69.117-68.821C512.526,775.27,559.6,663.288,527.045,742.225Z"/>
  <path id="cobertura" fill="#06c2b5" class="cls-1" d="M614.176,878.417l28.53,5.707,45.647-32.339-32.334-55.168Z"/>
  <path id="Boca_copiar_4" data-name="Boca copiar 4" fill="#404040" class="cls-3" d="M563.295,739.57s14.189-23.652,14.8-2.745,11.523,62.161,11.523,62.161c19.281,29.6,53.681,44.664,86.845,39.008,29.395-5.013,53.908-25.545,65.121-53.41l4.44-.824,3.509,2.411,0.823,4.441C737.2,820.031,710.3,841.6,678.111,846.874c-34.974,5.729-70.861-8.778-92.766-37.91l-1.48.275-1.48.274c-10.422,36.793-40.006,64.125-75.7,70.681-29.966,5.5-60.383-4.241-82.621-24.482l-4.332-6.851,0.657-4.715,2.686-2.029,3.234,0.931c20.112,21.071,49.365,31.781,78.456,26.786,51.316-8.811,68.4-55.293,70.033-67.888C577.37,772.806,531.8,660.2,563.295,739.57Z"/>
  <path id="Boca_copiar_5" data-name="Boca copiar 5" fill="#404040" class="cls-3" d="M576.617,737.1s-21.723-16.992-14.8,2.745,11.523,62.161,11.523,62.161c-7.391,34.544-34.105,60.944-67.092,67.555-29.238,5.859-59.481-4.519-79.936-26.512l-4.44.824-2.412,3.509,0.823,4.44c22.826,22.747,55.671,33.239,87.611,26.619,34.7-7.193,63.005-33.6,73.013-68.652l1.48-.275,1.48-.274c22.916,30.611,60.33,45.518,96,38.841,29.947-5.606,54.849-25.61,68.355-52.479l1.588-7.949-2.3-4.166-3.235-.931-2.685,2.029c-11.223,26.881-34.694,47.368-63.641,53.136-51.063,10.174-83.672-27.094-89.711-38.265C575.39,773.173,577.568,651.717,576.617,737.1Z"/>
  <path id="Canto_esq" data-name="Canto esq" fill="#404040" class="cls-3" d="M303.8,783.577c13.1,12.379,32.217,13.948,45.424,4.984,10.434-7.083,15.98-19.877,14.833-33.042a4.286,4.286,0,0,0-5.868-1.321,4.229,4.229,0,0,0-1.416,4.923c-0.191,9.065-4.309,17.956-12,23.2-9.867,6.723-24,6.187-34.634-2.246A3.622,3.622,0,1,0,303.8,783.577Z"/>
  <path id="Canto_dir" data-name="Canto dir" fill="#404040" class="cls-3" d="M785.1,787.09c-14.422,10.914-33.524,10.3-45.53-.188-9.484-8.29-13.457-21.747-10.764-34.812a4.239,4.239,0,0,1,5.961-.654,4.292,4.292,0,0,1,.819,5.095c-0.884,9.109,2.138,18.491,9.128,24.621,8.967,7.865,23.009,8.939,34.531,1.7a3.605,3.605,0,0,1,5.037-.858A3.694,3.694,0,0,1,785.1,787.09Z"/>
  <path id="Nariz_cima" data-name="Nariz cima" fill="#06c2b5" class="cls-1" d="M408.765,691.99c-0.778,7.708-1.4,15.192-1.9,22.827-3.147,48.077,1.139,95.848,7.608,117.944a242.094,242.094,0,0,0,22.823,53.265l93.2,7.61h95.1a285.428,285.428,0,0,1,28.53-38.047c28.685-32.186,54.767-47.032,60.862-79.9,2.923-15.757.558-31.754-5.706-47.558l-66.568-76.093L444.9,634.92Z"/>
  <path id="Tromba" fill="#06c2b5" class="cls-1" d="M376.431,886.026a23.09,23.09,0,0,0-12.362,6.659c-1.79,1.907-4.209,6.064-5.706,11.413-1.515,5.41-.9,11.2-3.8,17.121-2.051,4.179-5.233,6.477-8.559,10.463-4.437,5.319-7.4,10.563-8.559,14.268-2.279,7.263-1.154,13.013,0,15.218,2.384,4.556,7.254,7.265,12.363,8.561,5.376,1.363,10.4-.2,18.068-1.9,6.34-1.4,10.843-2.1,16.167-4.756a47.207,47.207,0,0,0,7.608-4.755l18.069,7.609a156.792,156.792,0,0,0,26.627,8.56,165.828,165.828,0,0,0,30.431,3.8,226.591,226.591,0,0,0,34.236-1.9c9.955-1.206,24.82-4.069,38.039-6.658,11.766-2.305,27.793-5.857,43.745-13.317,8.458-3.955,15.977-8.7,22.824-16.169a69.1,69.1,0,0,0,13.313-21.877c5.276-13.469,7.791-25.736,11.412-39,1.668-6.109,13.934-29.024,10.461-37.1-6.6-15.324-46.158-17.993-116.02-10.463-10.645,1.148-32.347,8.586-51.353,14.268-6.45,1.928-20.246,12.461-32.333,21.876-2.3,1.788-6.043,4.821-6.657,9.512-1.014,7.753,7.679,12.8,15.216,23.779a63.064,63.064,0,0,1,7.608,15.219,110.132,110.132,0,0,1-54.206-6.659l-3.8-8.56c-1.2-6.193-4.863-11.669-10.461-14.267C386.247,885.8,382.11,884.91,376.431,886.026Z"/>
  <path id="Olho_esq" data-name="Olho esq" fill="#404040" class="cls-3" d="M349.8,518.878a45.656,45.656,0,1,1-45.647,45.656A45.652,45.652,0,0,1,349.8,518.878Z"/>
  <circle id="brilho_esq" data-name="brilho esq" fill="#fff" class="cls-4" cx="362.172" cy="549.313" r="19.016"/>
  <circle id="Olho_esq_copiar" data-name="Olho esq copiar" fill="#404040" class="cls-5" cx="715.5" cy="564.5" r="45.5"/>
  <circle id="brilho_esq_copiar" data-name="brilho esq copiar" fill="#fff" class="cls-4" cx="727.828" cy="549.328" r="18.953"/>
  <path id="Bochecha_esq" data-name="Bochecha esq" fill="#6dfff9" class="cls-6" d="M284.186,638.724c23.635,0,42.794,12.776,42.794,28.535s-19.159,28.535-42.794,28.535-42.794-12.775-42.794-28.535S260.552,638.724,284.186,638.724Z"/>
  <path id="Bochecha_dir" data-name="Bochecha dir" fill="#6dfff9" class="cls-6" d="M798.667,638.724c23.634,0,42.794,12.776,42.794,28.535s-19.16,28.535-42.794,28.535-42.794-12.775-42.794-28.535S775.032,638.724,798.667,638.724Z"/>
  <path id="Troba_final" data-name="Troba final" fill="#fff" class="cls-2" d="M349.088,945.451c-2.166-6.959,11.045-14.968,15.077-24.712,3.511-8.488,2.257-14.287,8.375-19.771,2.05-1.837,7.137-5.663,11.726-4.119,2.35,0.791,5.067,3.634,6.7,9.886,1.072,4.1,1.14,10.252-1.675,18.122a75.812,75.812,0,0,1-5.863,11.533c-3.18,5.325-6.234,9.414-9.213,11.533-5.019,3.57-11.072,5.817-16.751,4.118C355.567,951.474,350.357,949.526,349.088,945.451Z"/>
  <path id="Brilho" fill="#6dfff9" class="cls-6" d="M408.765,647.285A272.886,272.886,0,0,1,695.01,661.552c2.71,1.019,5.031.98,5.706,0,0.79-1.147-.327-4.088-3.8-6.658A284,284,0,0,0,406.67,639.31c-3.184.822-4.541,4.058-3.611,6.073C403.83,647.052,406.283,648.116,408.765,647.285Z"/>
</svg>
