<svg xmlns="http://www.w3.org/2000/svg" width="1080" height="1080" viewBox="0 0 1080 1080">
  <circle id="Orelha_esq" data-name="Orelha esq" fill="#06c2b5" class="cls-1" cx="247.5" cy="234.5" r="129.5"/>
  <circle id="Ouvido_esq" data-name="Ouvido esq" fill="#6dfff9" class="cls-2" cx="247" cy="235" r="69"/>
  <circle id="Orelha_esq_copiar" data-name="Orelha esq copiar" fill="#06c2b5" class="cls-1" cx="794.5" cy="234.5" r="129.5"/>
  <circle id="Ouvido_esq_copiar" data-name="Ouvido esq copiar" fill="#6dfff9" class="cls-2" cx="795" cy="235" r="69"/>
  <path id="Forma_1" fill="#06c2b5" data-name="Forma 1" class="cls-3" d="M528,1000c-89.776-3.487-169.876-29.983-234-72-85.527-56.042-126.791-115.112-148-166-18.878-45.295-34.384-137.334-6-252,11.312-45.7,26.942-84.357,46-118,49.571-87.506,115.619-146.156,188-176,28.981-11.95,90.524-25.293,156-26,76.9-.831,145.759,15.343,180,30,57.76,24.724,119.3,69.505,174,148,29.206,41.908,48.291,82.7,60,122,25.684,86.2,26.159,185.381-14,274-27.009,59.6-75.6,121.233-158,172-57.432,35.382-122.284,56.694-190,63A469.5,469.5,0,0,1,528,1000Z"/>
  <path id="Forma_2_copiar" data-name="Forma 2 copiar" fill="#fff" class="cls-4" d="M479.56,955.708c-51.551-9.75-90.614-32.028-104.5-44.416-22.121-19.731-38.731-46.58-49.9-92.149-13.578-55.4-3.524-93.034-4.421-149.232-0.7-43.761-4.434-77.507,22.109-104.058,12.427-12.43,38.385-24.457,78.686-30.265,74.759-10.774,118.985-17.533,143.3,5.688,18.651,17.81,11.386,35.792,27.165,58.67,14.524,21.06,50.514,35.6,54,61.956,2.039,15.419-5.815,27.684-10,34.975-12.921,22.513-19.854,50.686-22,82.941-2.153,32.362,7.972,68.238,10,89.936,3.529,37.747-1.316,66.292-8.76,75.195C601.076,961.891,554.461,969.873,479.56,955.708Z"/>
  <path id="Forma_2_copiar_2" data-name="Forma 2 copiar 2" fill="#fff" class="cls-4" d="M599.593,955.389c51.5-9.758,90.529-32.055,104.405-44.454,22.1-19.747,38.693-46.619,49.85-92.227,13.565-55.453,3.521-93.115,4.416-149.36,0.7-43.8,4.43-77.574-22.088-104.147-12.415-12.441-38.348-24.479-78.611-30.292C582.878,524.126,538.694,517.361,514.4,540.6c-18.633,17.826-11.375,35.823-27.139,58.721C472.75,620.4,436.8,634.95,433.312,661.332c-2.037,15.432,5.81,27.707,9.991,35,12.908,22.532,19.834,50.729,21.979,83.012,2.151,32.389-7.964,68.3-9.991,90.013-3.525,37.779,1.315,66.349,8.751,75.259C478.194,961.578,524.764,969.566,599.593,955.389Z"/>
  <path id="Boca" fill="#404040" class="cls-5" d="M537.446,617.465s8.214-9.455,6.771,0,0,28.922,0,28.922c6.1,14.922,20.08,24.568,35.21,24.79,13.411,0.2,25.936-6.994,33.179-18.592h2.031l1.355,1.377v2.066a43.267,43.267,0,0,1-36.565,19.281c-15.937-.34-30.619-9.859-37.918-24.79h-1.355C532.529,666.2,517.2,676.026,500.882,676c-13.7-.024-26.358-6.945-34.533-17.9l-1.355-3.443,0.677-2.066,1.355-.689,1.354,0.689c7.167,11.155,19.227,18.413,32.5,18.592,23.417,0.318,34.783-19.166,36.538-24.7C540.946,633.589,530.025,579.138,537.446,617.465Z"/>
  <path id="Boca_copiar" data-name="Boca copiar" fill="#404040" class="cls-5" d="M543.54,617.674s-8.214-9.421-6.771,0,0,28.819,0,28.819c-6.1,14.868-20.08,24.48-35.21,24.7a38.761,38.761,0,0,1-33.179-18.527h-2.031l-1.355,1.373V656.1a42.778,42.778,0,0,0,74.483-5.489h1.355c7.625,15.624,22.949,25.416,39.272,25.388,13.7-.024,26.358-6.92,34.533-17.84l1.355-3.431-0.678-2.059-1.354-.686-1.354.686c-7.167,11.116-19.227,18.347-32.5,18.527-23.417.316-34.783-19.1-36.538-24.607C540.04,633.741,550.96,579.484,543.54,617.674Z"/>
  <path id="Nariz" fill="#404040" class="cls-5" d="M539.023,552c23.792,0,54.583,17.75,54.116,33.631s-42.453,40.171-53.183,41.105-53.65-25.223-54.116-39.236S515.231,552,539.023,552Z"/>
  <path id="Bochecha_esq" data-name="Bochecha esq" fill="#6dfff9" class="cls-6" d="M247.267,596.068c23.211,0,42.027,12.542,42.027,28.014S270.478,652.1,247.267,652.1s-42.028-12.542-42.028-28.013S224.055,596.068,247.267,596.068Z"/>
  <path id="Bochecha_dir" data-name="Bochecha dir" fill="#6dfff9" class="cls-6" d="M836.535,596.068c23.211,0,42.028,12.542,42.028,28.014S859.746,652.1,836.535,652.1s-42.028-12.542-42.028-28.013S813.324,596.068,836.535,596.068Z"/>
  <path id="Olho_esq" data-name="Olho esq" fill="#404040" class="cls-5" d="M362.775,401A45.01,45.01,0,1,1,318,446.006,44.895,44.895,0,0,1,362.775,401Z"/>
  <circle id="Olho_dir" data-name="Olho dir" fill="#404040" class="cls-7" cx="691" cy="446" r="45"/>
  <circle id="brilho_dir" data-name="brilho dir" fill="#fff" class="cls-8" cx="702" cy="431" r="18.75"/>
  <circle id="brilho_esq" data-name="brilho esq" fill="#fff" class="cls-8" cx="374.906" cy="431" r="18.656"/>
</svg>
