<svg xmlns="http://www.w3.org/2000/svg" width="1080" height="1080" viewBox="0 0 1080 1080">
  <path id="Forma_5_copiar_3" data-name="Forma 5 copiar 3" fill="#06c2b5" class="cls-1" d="M947.7,678.541l83.532,32.915c3.27,3.919,5.09,9.286,3.68,14.438-2.01,7.311-10.25,12.8-19.79,11.741l-87.3-26.015"/>
  <path id="Forma_5_copiar_4" data-name="Forma 5 copiar 4" fill="#06c2b5" class="cls-1" d="M932.15,592.87l83.76-32.479c5.08,0.651,10.08,3.349,12.56,8.081,3.52,6.716,1.23,16.32-6.5,22l-81.82,40.092"/>
  <path id="Forma_5_copiar_5" data-name="Forma 5 copiar 5" fill="#06c2b5" class="cls-1" d="M949.564,631.193l89.846,1.639c4.44,2.525,8.04,6.914,8.53,12.231,0.69,7.546-5.1,15.565-14.41,17.9l-90.945,6.14"/>
  <path id="Forma_5_copiar_6" data-name="Forma 5 copiar 6" fill="#06c2b5" class="cls-1" d="M132.5,678.486L48.794,711.45c-3.283,3.925-5.106,9.3-3.687,14.459,2.013,7.322,10.269,12.822,19.826,11.758l87.492-26.053"/>
  <path id="Forma_5_copiar_7" data-name="Forma 5 copiar 7" fill="#06c2b5" class="cls-1" d="M148.084,592.691L64.139,560.163c-5.091.652-10.1,3.355-12.585,8.094-3.526,6.725-1.226,16.343,6.514,22.034l82,40.15"/>
  <path id="Forma_5_copiar_8" data-name="Forma 5 copiar 8" fill="#06c2b5" class="cls-1" d="M130.632,631.07L40.6,632.711c-4.459,2.529-8.059,6.924-8.548,12.249-0.694,7.557,5.1,15.588,14.432,17.927l91.145,6.149"/>
  <path id="Forma_4" data-name="Forma 4" fill="#06c2b5" class="cls-1" d="M418.167,274.507c-6.63-17.5-19.121-37.052-43.607-56.094-29.8-23.177-63.559-28.362-107.979-43.629-12.2-4.194-31.905-12.416-49.836-24.931a190.306,190.306,0,0,1-27-22.853l-47.76,72.715A236.947,236.947,0,0,0,115,280.74c-3.959,28.188-2.078,76.494,18.688,130.886,18.747,49.1,45.176,80.069,58.143,85.18,35.175,13.866,75.878-22.219,149.509-60.249,21.535-11.123,50.072-25.145,68.525-58.172C424.008,353.065,433.134,314.015,418.167,274.507Z"/>
  <path id="Forma_4_copiar" data-name="Forma 4 copiar" fill="#fff" class="cls-2" d="M320.632,259.187c-3.665-13.067-10.7-27.7-24.668-42.05-17-17.461-36.465-21.568-61.993-33.254a113.275,113.275,0,0,1-28.566-18.915,122.772,122.772,0,0,1-15.384-17.2l-28.3,53.736a212.918,212.918,0,0,0-16.374,60.072c-2.556,20.939-1.929,56.886,9.555,97.5,10.367,36.665,25.347,59.895,32.792,63.793,20.2,10.575,44.067-15.966,86.985-43.709,12.553-8.115,29.18-18.334,40.16-42.764C323.26,317.666,328.906,288.686,320.632,259.187Z"/>
  <path id="Forma_4_copiar_2" data-name="Forma 4 copiar 2" fill="#06c2b5" class="cls-1" d="M657.387,274.545c6.629-17.5,19.12-37.062,43.6-56.108,29.8-23.183,63.553-28.369,107.968-43.641,12.2-4.195,31.9-12.419,49.831-24.937A190.266,190.266,0,0,0,885.78,127l47.755,72.734a237.075,237.075,0,0,1,26.992,81.046c3.958,28.2,2.077,76.514-18.687,130.92-18.745,49.117-45.171,80.09-58.136,85.2-35.172,13.869-75.87-22.226-149.494-60.265-21.533-11.126-50.066-25.152-68.518-58.187C651.546,353.124,642.422,314.064,657.387,274.545Z"/>
  <path id="Forma_4_copiar_3" data-name="Forma 4 copiar 3" fill="#fff" class="cls-2" d="M754.912,259.221c3.664-13.07,10.7-27.711,24.666-42.06,17-17.466,36.461-21.574,61.986-33.263a113.255,113.255,0,0,0,28.563-18.92,122.857,122.857,0,0,0,15.382-17.2l28.294,53.75a213.016,213.016,0,0,1,16.372,60.087c2.557,20.945,1.93,56.9-9.553,97.526-10.366,36.675-25.344,59.911-32.789,63.81-20.2,10.578-44.062-15.97-86.976-43.72-12.552-8.117-29.177-18.339-40.156-42.776C752.284,317.716,746.638,288.729,754.912,259.221Z"/>
  <path id="Forma_1" data-name="Forma 1" fill="#06c2b5" class="cls-1" d="M457.621,235.033c-82.768,18.627-167.242,66.931-240.876,153.74C136.65,483.2,112.123,574.829,110.843,625.615c-1.6,63.346,14.915,126.7,49.836,178.671,21.584,32.123,61.65,72.977,126.667,105.955,41,20.794,143.413,45.774,257.488,43.629,121.12-2.278,223.861-31.833,272.024-58.172C880.4,860.947,919.626,817.728,937.3,787.665c22.606-38.462,38.952-90.911,35.3-162.05-2.8-54.6-29.713-145.764-112.132-241-86.031-99.407-173.176-138.5-234.647-151.662C574.3,221.921,517.125,221.642,457.621,235.033Z"/>
  <path id="Forma_1_copiar" data-name="Forma 1 copiar" fill="#fff" class="cls-2" d="M502.527,612.442c-37.966,8.173-76.715,29.367-110.492,67.456-36.74,41.431-47.991,81.635-48.578,103.918-0.732,27.794,6.842,55.591,22.86,78.395,9.9,14.1,28.28,32.02,58.1,46.49,18.805,9.123,65.784,20.084,118.111,19.143,55.559-1,102.687-13.968,124.78-25.524,29.149-15.248,47.14-34.211,55.246-47.4,10.369-16.876,17.868-39.888,16.192-71.1-1.285-23.956-13.629-63.956-51.435-105.741-39.464-43.616-79.437-60.767-107.634-66.544C556.049,606.689,529.822,606.567,502.527,612.442Z"/>
  <path id="Olho_esq" data-name="Olho esq" fill="#404040" class="cls-3" d="M391.977,470.833a46.756,46.756,0,1,1-46.49,46.755A46.624,46.624,0,0,1,391.977,470.833Z"/>
  <path id="Olho_dir" data-name="Olho dir" fill="#404040" class="cls-3" d="M688.354,470.833a46.756,46.756,0,1,1-46.49,46.755A46.624,46.624,0,0,1,688.354,470.833Z"/>
  <circle id="brilho_dir" data-name="brilho dir" fill="#fff" class="cls-4" cx="703.844" cy="502" r="19.375"/>
  <path id="brilho_esq" data-name="brilho esq" fill="#fff" class="cls-2" d="M404.568,482.521A19.482,19.482,0,1,1,385.2,502,19.427,19.427,0,0,1,404.568,482.521Z"/>
  <path id="Boca" fill="#404040" class="cls-3" d="M540.226,675.776s9.6-10.858,7.915,0,0,33.214,0,33.214c7.131,17.136,23.471,28.214,41.157,28.469a45.458,45.458,0,0,0,38.783-21.352h2.374l1.583,1.582v2.372a50.347,50.347,0,0,1-87.063-6.326h-1.583c-8.913,18.008-26.826,29.292-45.906,29.26a51.078,51.078,0,0,1-40.365-20.561l-1.583-3.954,0.791-2.373,1.583-.791,1.583,0.791a46.418,46.418,0,0,0,37.991,21.352c27.373,0.365,40.659-22.01,42.71-28.36C544.317,694.293,531.552,631.762,540.226,675.776Z"/>
  <path id="Boca_copiar" data-name="Boca copiar" fill="#404040" class="cls-3" d="M547.349,675.776s-9.6-10.858-7.914,0,0,33.214,0,33.214c-7.131,17.136-23.471,28.214-41.157,28.469A45.457,45.457,0,0,1,459.5,716.107h-2.374l-1.583,1.582v2.372a50.347,50.347,0,0,0,87.063-6.326h1.583C553.1,731.743,571.01,743.027,590.09,743a51.081,51.081,0,0,0,40.365-20.561l1.583-3.954-0.791-2.373-1.583-.791-1.583.791a46.418,46.418,0,0,1-37.991,21.352c-27.373.365-40.659-22.01-42.71-28.36C543.258,694.293,556.023,631.762,547.349,675.776Z"/>
  <path id="Nariz" fill="#404040" class="cls-3" d="M543.419,630.808c18.831,0,43.2,14.023,42.832,26.57s-33.6,31.737-42.094,32.476-42.463-19.929-42.833-31S524.587,630.808,543.419,630.808Z"/>
  <path id="Bochecha_esq" data-name="Bochecha esq" fill="#fff" class="cls-2" d="M231.78,610.04c28.38,0,51.387,15.347,51.387,34.278S260.16,678.6,231.78,678.6s-51.388-15.347-51.388-34.277S203.4,610.04,231.78,610.04Z"/>
  <path id="Bochecha_dir" data-name="Bochecha dir" fill="#fff" class="cls-2" d="M849.57,610.04c28.38,0,51.387,15.347,51.387,34.277S877.95,678.6,849.57,678.6s-51.387-15.347-51.387-34.278S821.189,610.04,849.57,610.04Z"/>
  <path id="Forma_5" data-name="Forma 5" fill="#6dfff9" class="cls-5" d="M165.524,775.659a120.046,120.046,0,0,0,23.828,36.034A118.418,118.418,0,0,0,206.657,826.5l96.721-117.3Z"/>
  <path id="Forma_5_copiar" data-name="Forma 5 copiar" fill="#6dfff9" class="cls-5" d="M224.041,842.956A119.712,119.712,0,0,0,257.6,870.024a118.148,118.148,0,0,0,20.944,8.851l56.67-140.831Z"/>
  <path id="Forma_5_copiar_2" data-name="Forma 5 copiar 2" fill="#6dfff9" class="cls-5" d="M921.022,777.969a119.755,119.755,0,0,1-24.647,35.451,118.54,118.54,0,0,1-17.659,14.406l-94.479-119.16Z"/>
  <path id="Forma_5_copiar_9" data-name="Forma 5 copiar 9" fill="#6dfff9" class="cls-5" d="M854.625,843.868a118.894,118.894,0,0,1-55.4,34.675L745.4,736.759Z"/>
  <path id="Forma_5_copiar_10" data-name="Forma 5 copiar 10" fill="#6dfff9" class="cls-5" d="M665.387,263.534a118.657,118.657,0,0,0-61.846-20.584L584.5,392.889Z"/>
  <path id="Forma_5_copiar_11" data-name="Forma 5 copiar 11" fill="#6dfff9" class="cls-5" d="M425.871,263.87a119.088,119.088,0,0,1,61.908-20.531l19.059,149.55Z"/>
  <path id="Forma_5_copiar_12" data-name="Forma 5 copiar 12" fill="#6dfff9" class="cls-5" d="M513.029,240.437a119.076,119.076,0,0,1,65.2,1.512L545.873,389.193Z"/>
</svg>
