<svg id="Dog" xmlns="http://www.w3.org/2000/svg" width="1080" height="1080" viewBox="0 0 1080 1080">
  <path id="Cabeça" fill="#06c2b5" class="cls-1" d="M173,606a181.418,181.418,0,0,1-41.571,44.392l-11.208,8.4a30.917,30.917,0,0,0-2.8,39.219l4.67,14.941a25.792,25.792,0,0,1,2.8,13.073,26.2,26.2,0,0,1-7.472,16.809l-6.537,9.337a17.269,17.269,0,0,0,3.736,25.213L154,815c13.012,10.656,25.494,21.163,38,32,16.057,13.914,30.614,26.709,46.833,38.707,12.7,9.393,26.017,18.619,37.358,25.213,38.415,22.335,78.857,35.088,122.348,42.954,38.445,6.953,83.986,8.107,132.621,9.338,36.989,0.936,71.258,1.7,101.8-1.868,43.713-5.109,82.147-14.7,116.744-28.013a454.462,454.462,0,0,0,98.065-52.293L902,835c7.632-13.011,16.9-23.375,28-31,6.81-4.679,22.338-13.985,30.779-22.877,1.327-1.4,2.729-2.988,4.066-4.655a74.03,74.03,0,0,0,5.273-7.484,22.4,22.4,0,0,0,3.736-14.941c-0.966-8.205-13.075-19.61-13.075-19.61a17.515,17.515,0,0,1-6.538-14.007,17.263,17.263,0,0,1,4.67-11.205l5.6-15.875a23.011,23.011,0,0,0-.934-28.947L921.553,625.18A138.078,138.078,0,0,1,903,592c-3.527-12.262-6.5-24.5-9-37a461.01,461.01,0,0,1-8.871-83.9q2.334-82.173,4.669-164.347c-4.813-21.628-6.426-75.376-14.009-105.518-11.777-46.813-30.473-70.7-40.16-91.512A50.507,50.507,0,0,0,821.62,91.052c-24.242-19.827-62.954-11.377-84.056-1.867-36.6,16.492-53,49.381-65.377,73.77-14.808,29.187-34.273,65.667-52.3,98.981l-28.953-2.8-50.433-2.8L501.274,258.2l-41.094,4.669-44.83-90.578c-16.523-41.052-49.239-77.447-92.461-84.974-18.9-3.291-42.991-2.5-62.575,9.338a77.3,77.3,0,0,0-18.679,15.875s-24.3,44.079-38.292,105.518c-7.7,33.818-5.661,74.978-10.273,112.055-3.465,27.85,1.867,141.936,1.867,141.936-3.071,27.235-7.26,63.451-8.937,80.962a193.883,193.883,0,0,1-4,25A179.392,179.392,0,0,1,173,606Z"/>
  <path id="Cara_copiar" data-name="Cara copiar" fill="#fff" class="cls-2" d="M835.566,644.068a617.152,617.152,0,0,0-24.277-111.206c-10.807-33.755-25.708-68.034-56.959-98.122-24.789-23.867-48.622-32.144-62.562-32.708-19.252-.778-43.583,6.639-72.833,35.511a141.928,141.928,0,0,0-32.681,50.463Q586.626,478,587,468a124.547,124.547,0,0,0-3-39,110.789,110.789,0,0,0-9-25,105.533,105.533,0,0,0-35.434-39.348L528,378a118.158,118.158,0,0,0-13,23,121.1,121.1,0,0,0-6,18,299.835,299.835,0,0,0-6,31,333.04,333.04,0,0,1-8.254,41.744A30.611,30.611,0,0,1,486,488c-8.024-5.055-13.03-13.547-15-23a50.728,50.728,0,0,0-3.437-14.344c-4.143-10.3-10.683-16.814-18.571-23.392-12.929-10.782-27.677-19.815-33.615-21.494-7.428-2.1-21.435-3.306-37.351,0-18.092,3.759-35.926,12.453-52.29,26.166-21.217,17.78-32.27,37.683-41.085,57.005C266.4,528.954,256.493,565.292,250.1,598.277c-1.094,5.646-2.119,11.268-3.083,16.9-1.591,9.305,1.289,17.471-3.266,20.785C241.786,637.4,239.1,637.623,236,637l-7-5-19-12-18-3c-7.062,4.253-12.451,9.2-16,15a75.86,75.86,0,0,1-4.422,6.829A69.86,69.86,0,0,1,166.064,645c-1.91,1.941-3.812,3.676-5.7,5.291-6.5,5.551-16.637,13.918-25.111,20.875a15.924,15.924,0,0,0,0,20.559Q137.625,699.363,140,707a45.678,45.678,0,0,1-1,35l-11.22,13.273A14.418,14.418,0,0,0,127,765a14.942,14.942,0,0,0,10,10c7.214,4.794,14.126,9.732,21,15,8.305,6.365,16.239,12.977,24,20,9.167,8.885,18.39,17.363,28.083,25.819,10.712,9.343,22.651,19.285,31.615,25.988,22.422,16.763,48.842,31.9,81.237,45.79C362.945,924.748,408.818,937.053,463,943c19.878,2.182,49.529,3,77,3,40.167,0.007,79.861-2.238,109-7,31.806-5.2,59.1-12.158,83.853-21.123a408.407,408.407,0,0,0,77.5-37.38,393.987,393.987,0,0,0,60.694-46.725l35.483-33.643A190.338,190.338,0,0,1,941.08,774.9l7.47-5.607a10.057,10.057,0,0,0,.934-14.952l-7.47-10.279a46.6,46.6,0,0,1-.934-46.726l2.8-7.476a13.4,13.4,0,0,0,2.8-8.41,13.9,13.9,0,0,0-6.536-11.214l-9.338-10.28a165.333,165.333,0,0,1-36.416-38.314l-7.47-18.69a13.268,13.268,0,0,0-2.8-7.476c-2.126-2.666-4.485-3.646-5.6-3.738-2.723-.225-5.656,1.462-7.47,4.672l-16.808,22.428Z"/>
  <path id="Cara_copiar_2" data-name="Cara copiar 2" fill="#fff" class="cls-2" d="M242.826,644.246a616.4,616.4,0,0,1,24.282-111.14c10.808-33.735,25.712-67.993,56.967-98.064,24.793-23.852,48.63-32.125,62.571-32.688,19.255-.778,43.59,6.634,72.844,35.49a141.848,141.848,0,0,1,32.687,50.433l-0.747-19.994a124.371,124.371,0,0,1,3-38.977,110.678,110.678,0,0,1,9-24.986A105.5,105.5,0,0,1,538.872,365q5.783,6.671,11.567,13.34a118.058,118.058,0,0,1,13,22.986,120.949,120.949,0,0,1,6,17.99,299.293,299.293,0,0,1,6,30.981,332.71,332.71,0,0,0,8.255,41.72,30.646,30.646,0,0,0,8.748-3.742c8.024-5.052,13.032-13.539,15-22.987a50.725,50.725,0,0,1,3.437-14.336c4.144-10.3,10.685-16.8,18.574-23.378,12.931-10.775,27.682-19.8,33.621-21.48,7.428-2.1,21.438-3.3,37.355,0,18.1,3.756,35.932,12.445,52.3,26.15,21.22,17.77,32.274,37.66,41.091,56.971,18.258,39.99,28.163,76.306,34.554,109.272,1.094,5.642,2.12,11.261,3.083,16.891,1.592,9.3-1.288,17.461,3.267,20.774,1.968,1.43,4.656,1.657,7.754,1.035l7-5,19-11.993,18-3c7.063,4.25,12.453,9.2,16,14.991a75.592,75.592,0,0,0,4.422,6.825,70.021,70.021,0,0,0,5.515,6.169c1.91,1.94,3.813,3.674,5.7,5.288,6.5,5.548,16.64,13.91,25.114,20.863a15.9,15.9,0,0,1,0,20.547q-2.375,7.632-4.75,15.263a45.615,45.615,0,0,0,1,34.98q5.611,6.632,11.222,13.265a14.4,14.4,0,0,1,.78,9.721,14.939,14.939,0,0,1-10,9.994c-7.215,4.792-14.128,9.726-21,14.991-8.306,6.362-16.242,12.97-24,19.988-9.169,8.88-18.393,17.353-28.088,25.8-10.713,9.338-22.654,19.274-31.62,25.972-22.425,16.754-48.849,31.886-81.249,45.764-40.016,17.14-85.9,29.438-140.086,35.382-19.881,2.18-49.537,2.993-77.012,3-40.173.007-79.872-2.237-109.016-7-31.811-5.2-59.109-12.151-83.866-21.111a408.481,408.481,0,0,1-77.513-37.358,393.908,393.908,0,0,1-60.7-46.7L171.85,800.216A190.354,190.354,0,0,0,137.3,775l-7.471-5.6a10.047,10.047,0,0,1-.934-14.943l7.471-10.273a46.537,46.537,0,0,0,.934-46.7l-2.8-7.471a13.382,13.382,0,0,1-2.8-8.406A13.884,13.884,0,0,1,138.23,670.4l9.339-10.273a165.259,165.259,0,0,0,36.422-38.292l7.471-18.679a13.256,13.256,0,0,1,2.8-7.472c2.127-2.664,4.486-3.644,5.6-3.736,2.724-.224,5.657,1.462,7.471,4.67l16.811,22.415Z"/>
  <path id="orelha_dir" data-name="orelha dir" fill="#06c2b5" class="cls-1" d="M888.23,282.8c12.077,111.485,6.039-195.852-108.694-201.878s-141.9,189.826-141.9,168.734S725.19,306.9,725.19,306.9L885.211,424.415"/>
  <path id="ouvido_dir" data-name="ouvido dir" fill="#6dfff9" class="cls-3" d="M833.761,293.684c7.472,69.1,3.736-121.393-67.245-125.128s-87.791,117.658-87.791,104.585,54.169,35.484,54.169,35.484l99,72.836"/>
  <path id="orelha_esq" data-name="orelha esq" fill="#06c2b5" class="cls-1" d="M189.968,282.8C177.891,394.284,183.929,86.947,298.661,80.921S440.567,270.747,440.567,249.655,353.008,306.9,353.008,306.9L192.987,424.415"/>
  <path id="ouvido_esq" data-name="ouvido esq" fill="#6dfff9" class="cls-3" d="M249.926,291.853c-7.477,69.072-3.739-121.343,67.294-125.077s87.857,117.609,87.857,104.542-54.21,35.469-54.21,35.469L251.8,379.593"/>
  <path id="Bochecha_esq" data-name="Bochecha esq"  fill="#6dfff9" class="cls-3" d="M289.267,669.068c23.211,0,42.028,12.542,42.028,28.014S312.478,725.1,289.267,725.1s-42.028-12.542-42.028-28.013S266.055,669.068,289.267,669.068Z"/>
  <path id="Bochecha_dir" data-name="Bochecha dir" fill="#6dfff9" class="cls-3" d="M794.535,669.068c23.211,0,42.028,12.542,42.028,28.014S817.746,725.1,794.535,725.1s-42.028-12.542-42.028-28.013S771.324,669.068,794.535,669.068Z"/>
  <path id="Boca" fill="#404040" class="cls-4" d="M534.6,690.735s12.142-13.738,10.009,0,0,42.021,0,42.021c9.019,21.68,29.683,35.7,52.05,36.019,19.826,0.286,38.34-10.162,49.048-27.014h3l2,2v3a63.66,63.66,0,0,1-110.106-8h-2c-11.272,22.783-33.926,37.06-58.055,37.019-20.259-.034-38.963-10.089-51.049-26.013l-2-5,1-3,2-1,2,1c10.6,16.208,28.423,26.752,48.047,27.014,34.617,0.46,51.419-27.847,54.013-35.881C539.769,714.162,523.625,635.049,534.6,690.735Z"/>
  <path id="Boca_copiar" data-name="Boca copiar" fill="#404040" class="cls-4" d="M543.6,690.735s-12.142-13.738-10.009,0,0,42.021,0,42.021c-9.019,21.68-29.683,35.7-52.05,36.019-19.826.286-38.34-10.162-49.048-27.014h-3l-2,2v3a63.659,63.659,0,0,0,110.1-8h2c11.273,22.783,33.927,37.06,58.056,37.019,20.259-.034,38.963-10.089,51.049-26.013l2-5-1-3-2-1-2,1c-10.6,16.208-28.423,26.752-48.047,27.014-34.617.46-51.419-27.847-54.013-35.881C538.429,714.162,554.573,635.049,543.6,690.735Z"/>
  <path id="Nariz" fill="#404040" class="cls-4" d="M538.632,633.842c23.816,0,54.636,17.742,54.169,33.616s-42.495,40.153-53.235,41.087-53.7-25.212-54.169-39.219S514.816,633.842,538.632,633.842Z"/>
  <path id="Olho_esq" data-name="Olho esq" fill="#404040" class="cls-4" d="M396.775,534A45.01,45.01,0,1,1,352,579.006,44.895,44.895,0,0,1,396.775,534Z"/>
  <circle id="Olho_dir" data-name="Olho dir" fill="#404040" class="cls-5" cx="682.235" cy="579" r="44.765"/>
  <circle id="brilho_dir" data-name="brilho dir" fill="#fff" class="cls-6" cx="697.156" cy="564" r="18.656"/>
  <circle id="brilho_esq" data-name="brilho esq" fill="#fff" class="cls-6" cx="408.906" cy="564" r="18.656"/>
</svg>
