<svg id="Racoon" xmlns="http://www.w3.org/2000/svg" width="1080" height="1080" viewBox="0 0 1080 1080">
  <path id="Forma_5" data-name="Forma 5" fill="#06c2b5" class="cls-1" d="M67.282,674q9.019-54.816,25-101c11.438-32.883,27.15-67.088,48.008-104A720.307,720.307,0,0,1,188.3,395L148.3,351a288.031,288.031,0,0,1-30-98,247.618,247.618,0,0,1,0-60,235.335,235.335,0,0,1,10-44l38.006,2A445.735,445.735,0,0,1,300.32,167a451.168,451.168,0,0,1,86.014,34,456.3,456.3,0,0,1,44.007,26l26-4c19.366-1.315,39.612-2.708,58.009-4,21.3-1.5,41-2.668,60.01-2a426.8,426.8,0,0,1,78.013,10l30-18A388.587,388.587,0,0,1,778.4,167c22.689-6.448,49.9-11.18,80.013-14a550.444,550.444,0,0,1,102.017,0l6,38a347.67,347.67,0,0,1-4,78c-4.167,25.021-11.181,47.722-18,62a199.429,199.429,0,0,1-40.007,56l26,48a640.394,640.394,0,0,1,40.006,78c22.378,52.169,36.761,103.671,44.011,154a588.193,588.193,0,0,1,6,84,5.116,5.116,0,0,1-1,6,5.046,5.046,0,0,1-5,1l-63.014-6-6,16a254.686,254.686,0,0,1-40.006,56c-20.362,21.581-47.192,42-86.014,60C732.9,924.1,624.6,930.866,542.36,931c-59.6.1-141.137-4.222-227.037-27-58.34-15.47-101.646-35.743-138.023-73a250.62,250.62,0,0,1-53.008-82c-7.168.869-14.052,1.85-21,3-13.544,2.24-29.121,1.992-35.005,4-0.621.212-3.553,1.257-6,0a4.183,4.183,0,0,1-2-2,4.4,4.4,0,0,1,0-3C61.9,745.815,62.342,704.031,67.282,674Z"/>
  <path id="Forma_7" data-name="Forma 7" fill="#fff" class="cls-2" d="M206.305,375c-8.124.659-14.434-7.074-23-16a81.255,81.255,0,0,1-14-20c-12.221-23.679-19.666-45.76-22-67a172.259,172.259,0,0,1,4-60l26-4a303.352,303.352,0,0,1,45.008,0c23.764,1.766,53.73,8.04,86.014,19a452.773,452.773,0,0,1,67.01,29l-8,4a381.5,381.5,0,0,0-83.013,49c-14.432,11.195-30.6,24.176-36.006,31-5.7,7.19-23.206,22.9-33.006,31A16.223,16.223,0,0,1,206.305,375Z"/>
  <path id="Forma_7_copiar" data-name="Forma 7 copiar" fill="#fff" class="cls-2" d="M871.39,374.969c8.123,0.66,14.432-7.08,23-16.012a81.306,81.306,0,0,0,14-20.015c12.219-23.7,19.664-45.794,22-67.05a172.514,172.514,0,0,0-4-60.045l-26-4a303.122,303.122,0,0,0-45,0c-23.761,1.768-53.723,8.047-86,19.014a452.472,452.472,0,0,0-67,29.022l8,4a381.434,381.434,0,0,1,83,49.036c14.43,11.2,30.592,24.194,36,31.024,5.7,7.195,23.2,22.917,33,31.023A16.228,16.228,0,0,0,871.39,374.969Z"/>
  <path id="Forma_6" data-name="Forma 6" fill="#6dfff9" class="cls-3" d="M536.359,271c-56.44-.605-101.586,7.7-138.023,20A384.786,384.786,0,0,0,156.3,534q-7.725,25.738-13.542,51.928c-3.957,17.816-7.508,36.466-9.462,51.072-1.734,12.963-3.073,29.328-4,45-0.438,7.4-.767,14.63-1,22l5,30,6,15,10,17,10,15a167.17,167.17,0,0,0,19,21c2.516,2.347,5.194,4.657,8,7,6.923,5.779,13.78,12.118,20,17a222.816,222.816,0,0,0,36.006,23l16-41a296.334,296.334,0,0,1,45.008-78c13.808-17.205,39.045-40.841,68.011-62,32.609-23.82,66.385-41.261,89.014-49,29.395-10.053,54.471-13.866,76.013-14,18.621-.116,41.4,2.831,67.011,10,24.863,6.96,50.709,18.107,78.012,35,31.144,19.269,56.636,41.715,77.013,66a314.368,314.368,0,0,1,52.192,88.811A318.522,318.522,0,0,1,825.406,855c3.878-1.416,7.639-2.965,11.375-4.685q4.379-2.018,8.628-4.315a150.383,150.383,0,0,0,16-10q9.818-6.056,19-13c15.782-11.929,28.7-24.386,37.006-35,9.946-12.708,18.824-28.264,26-48,10.508-28.882,14.244-61.232,10-103-4.392-43.24-21.442-101.73-55.009-166-9.9-18.955-20.928-37.775-30-50-20.779-27.987-69.019-72.512-137.023-105A464.719,464.719,0,0,0,536.359,271Z"/>
  <path id="Bochecha_esq" data-name="Bochecha esq" fill="#fff" class="cls-2" d="M225.34,616.525c25.139,0,45.519,13.669,45.519,30.531s-20.38,30.531-45.519,30.531-45.519-13.669-45.519-30.531S200.2,616.525,225.34,616.525Z"/>
  <path id="Bochecha_dir" data-name="Bochecha dir" fill="#fff" class="cls-2" d="M856.588,616.525c25.139,0,45.519,13.669,45.519,30.531s-20.38,30.531-45.519,30.531-45.519-13.669-45.519-30.531S831.449,616.525,856.588,616.525Z"/>
  <circle id="Olho_dir" data-name="Olho dir" fill="#404040" class="cls-4" cx="702.843" cy="513.5" r="49.531"/>
  <path id="brilho_dir" data-name="brilho dir" fill="#fff" class="cls-2" d="M719.36,476.385a20.623,20.623,0,1,1-20.636,20.623A20.631,20.631,0,0,1,719.36,476.385Z"/>
  <circle id="Olho_esq" data-name="Olho esq" fill="#404040" class="cls-4" cx="378.844" cy="513.5" r="49.531"/>
  <circle id="brilho_esq" data-name="brilho esq" fill="#fff" class="cls-5" cx="392.265" cy="497" r="20.641"/>
  <path id="Boca" fill="#404040" stroke="#363636" stroke-width="4px" class="cls-6" d="M538.57,703.72s7.539-8.538,6.215,0,0,26.117,0,26.117a35.186,35.186,0,0,0,62.771,5.6h1.865l1.243,1.244v1.865a39.508,39.508,0,0,1-68.365-4.974h-1.243c-7,14.159-21.065,23.032-36.047,23.007a40.093,40.093,0,0,1-31.7-16.167l-1.243-3.109,0.621-1.866,1.243-.622,1.244,0.622a36.438,36.438,0,0,0,29.832,16.789c21.494,0.287,31.926-17.307,33.537-22.3C541.782,718.28,531.759,669.111,538.57,703.72Z"/>
  <path id="Boca_copiar" data-name="Boca copiar" fill="#404040" stroke="#363636" stroke-width="4px" class="cls-6" d="M544.163,706.588s-7.539-8.538-6.215,0,0,26.117,0,26.117a35.186,35.186,0,0,1-62.771,5.6h-1.865l-1.243,1.244v1.865a39.508,39.508,0,0,0,68.365-4.975h1.243c7,14.16,21.065,23.033,36.047,23.008a40.093,40.093,0,0,0,31.7-16.167l1.243-3.11-0.622-1.865-1.243-.622-1.243.622a36.438,36.438,0,0,1-29.832,16.789c-21.494.287-31.926-17.307-33.537-22.3C540.951,721.148,550.974,671.979,544.163,706.588Z"/>
  <path id="Nariz" fill="#404040" class="cls-7" d="M541.7,715c-43.246,0-99.212-23.267-98.364-44.086S520.5,618.254,540,617.029s97.516,33.065,98.364,51.434S584.941,715,541.7,715Z"/>
</svg>
