<svg xmlns="http://www.w3.org/2000/svg" width="1080" height="1080" viewBox="0 0 1080 1080">
  <path id="Forma_2" data-name="Forma 2" fill="#fff" class="cls-1" d="M602.785,440c4.764-47.154,12.2-99.5,19.991-124,12.67-39.834,31.781-63.467,47.979-102,8.143-19.372,24.461-57.247,51.977-88a276.862,276.862,0,0,1,19.991-20C760.2,90.112,780.362,76.564,790.7,72a141.144,141.144,0,0,1,57.974-12c36.433,0.29,63.29,10.958,81.964,28,16.9,15.423,27.514,35.872,31.986,56,8.531,38.4-5.986,74.563-39.982,128-23,36.156-65.924,89.088-73.968,100-8.929,12.114-49.285,67.275-95.957,98a144,144,0,0,1-53.977,22c-21.769,4.056-38.761,1.86-49.978-2-16.8-5.782-43.73-21.356-45.979-44A34.173,34.173,0,0,1,602.785,440Z"/>
  <path id="Forma_2_copiar" data-name="Forma 2 copiar" fill="#06c2b5" class="cls-2" d="M653.8,389.526c1.18-11.6,8.3-47.363,20.548-77.105,14.184-34.435,30.259-58.757,45.839-92.324,5.622-12.113,20.355-42.294,40.413-64.159,4.276-4.66,9.095-9.367,14.265-13.974,12.325-10.982,26.1-19.956,32.941-22.715a73.734,73.734,0,0,1,37.118-4.968c22.6,2.931,38.3,13.172,48.322,27.732,9.073,13.178,13.776,29.773,14.694,45.663,1.751,30.315-10.607,57.189-36.659,95.968-17.2,25.609-46.46,60.359-55.181,71.8-15.263,20.024-27.529,37.063-44.219,55.257-12.5,13.628-26.556,26.824-45.923,38.82a184.125,184.125,0,0,1-19.9,10.713c-6.687-13.6-14.97-23.189-25.029-28.434-3.969-2.07-25.4-4.475-28.958-14.281-1.394-3.84-.035-9.607.814-17.4C653.286,396.488,653.459,392.914,653.8,389.526Z"/>
  <path id="Forma_2_copiar_2" data-name="Forma 2 copiar 2" fill="#fff" class="cls-1" d="M476.716,439.836c-4.758-47.134-12.182-99.457-19.964-123.947-12.653-39.816-31.738-63.439-47.913-101.956-8.131-19.363-24.427-57.222-51.9-87.962A276.633,276.633,0,0,0,336.97,105.98C319.515,90.1,299.383,76.556,289.058,71.995A140.839,140.839,0,0,0,231.163,60c-36.382.29-63.2,10.954-81.851,27.988-16.878,15.417-27.476,35.857-31.941,55.976-8.52,38.383,5.978,74.531,39.927,127.944,22.971,36.141,65.833,89.05,73.865,99.957,8.917,12.109,49.217,67.246,95.826,97.958a143.7,143.7,0,0,0,53.9,21.99c21.739,4.055,38.708,1.86,49.909-2,16.779-5.78,43.67-21.346,45.917-43.981A34.337,34.337,0,0,0,476.716,439.836Z"/>
  <path id="Forma_2_copiar_3" data-name="Forma 2 copiar 3" fill="#06c2b5" class="cls-2" d="M425.767,389.384c-1.179-11.594-8.286-47.343-20.52-77.072-14.165-34.42-30.217-58.732-45.776-92.284-5.614-12.108-20.326-42.275-40.357-64.131-4.27-4.658-9.082-9.363-14.245-13.968-12.308-10.978-26.062-19.948-32.9-22.706a73.579,73.579,0,0,0-37.066-4.966c-22.571,2.93-38.245,13.167-48.256,27.721-9.06,13.172-13.757,29.759-14.673,45.643-1.749,30.3,10.592,57.164,36.608,95.926,17.181,25.6,46.395,60.334,55.1,71.769,15.242,20.016,27.491,37.048,44.159,55.234,12.483,13.621,26.519,26.811,45.859,38.8a183.714,183.714,0,0,0,19.871,10.708c6.678-13.593,14.949-23.179,25-28.422,3.963-2.068,25.362-4.473,28.918-14.274,1.392-3.839.034-9.6-.813-17.395C426.284,396.342,426.112,392.77,425.767,389.384Z"/>
  <path id="Forma_3" data-name="Forma 3" fill="#fff" class="cls-1" d="M607,391a366.177,366.177,0,0,0-64-2,410.163,410.163,0,0,0-70,2c-82.719,9.537-143.592,42.892-166,64-19.455,18.326-40.642,48.058-59,88-7.19,15.643-15.482,39.034-22,60-1.931,6.212-3.72,12.561-5,18-1.114,4.734-1.934,9.255-3,14-1,4.458-2.718,10.768-4,16-2.966,12.1-5.018,23.084-5,32a131.627,131.627,0,0,0,1,14c0.661,6.01,1.351,12.228,2,18l-6,12a129.974,129.974,0,0,0-16,45,133.564,133.564,0,0,0,5,61c3.546,11.251,9.241,23.515,18,37a176.359,176.359,0,0,0,28,33,196.183,196.183,0,0,0,63,39c19.836,7.7,37.551,10.753,54,13,17.146,2.342,39.114,5.93,50,7,48.642,4.783,88.2,13.816,136,13,30.964-.529,72.147-6.227,111-10,10.643-1.033,21.285-2.031,32-3l45-7a342.539,342.539,0,0,0,56-16c5.77-2.2,11.353-4.5,17-7a176.365,176.365,0,0,0,25-16,178.527,178.527,0,0,0,22-20c28.617-30.677,41.965-60.334,45-88a138.856,138.856,0,0,0-8-63l-5-12-10-17a142.278,142.278,0,0,0-3-65c-1.687-9.443-3.663-18.661-6-28-4.963-19.828-12.511-41.895-22-65-7.958-19.377-16.619-37.688-25-52-4.425-7.557-9.042-14.812-14-22l-16-20a51.669,51.669,0,0,0-6-6c-1.088-.923-2.2-1.788-3.355-2.617-1.186-.848-2.392-1.637-3.645-2.383C765.215,447.174,675.983,399.274,607,391Z"/>
  <path id="Bochecha_esq" data-name="Bochecha esq" fill="#6dfff9" class="cls-3" d="M289.917,697.19c23.189,0,41.987,12.554,41.987,28.039s-18.8,28.039-41.987,28.039-41.987-12.553-41.987-28.039S266.728,697.19,289.917,697.19Z"/>
  <path id="Bochecha_dir" data-name="Bochecha dir" fill="#6dfff9" class="cls-3" d="M794.7,697.19c23.189,0,41.987,12.554,41.987,28.039s-18.8,28.039-41.987,28.039-41.987-12.553-41.987-28.039S771.506,697.19,794.7,697.19Z"/>
  <path id="Boca" fill="#404040" class="cls-4" d="M537.8,739.914s12.126-13.744,10,0,0,42.041,0,42.041c9.006,21.69,29.642,35.712,51.978,36.035,19.8,0.286,38.286-10.167,48.979-27.026h3l2,2v3A63.514,63.514,0,0,1,543.8,787.961h-2c-11.257,22.793-33.879,37.077-57.975,37.036-20.231-.034-38.909-10.094-50.978-26.026l-2-5,1-3,2-1,2,1c10.58,16.215,28.383,26.764,47.98,27.026,34.569,0.461,51.347-27.86,53.938-35.9C542.971,763.352,526.85,684.2,537.8,739.914Z"/>
  <path id="Boca_copiar" data-name="Boca copiar" fill="#404040" class="cls-4" d="M546.8,739.914s-12.126-13.744-10,0,0,42.041,0,42.041c-9.006,21.69-29.642,35.712-51.978,36.035-19.8.286-38.286-10.167-48.979-27.026h-3l-2,2v3A63.514,63.514,0,0,0,540.8,787.961h2c11.257,22.793,33.879,37.077,57.976,37.036,20.23-.034,38.908-10.094,50.978-26.026l2-5-1-3-2-1-2,1c-10.58,16.215-28.383,26.764-47.979,27.026-34.57.461-51.348-27.86-53.939-35.9C541.634,763.352,557.755,684.2,546.8,739.914Z"/>
  <path id="Nariz" fill="#06c2b5" class="cls-2" d="M541.836,683c23.783,0,54.56,17.75,54.094,33.632s-42.436,40.171-53.161,41.106-53.628-25.224-54.094-39.238S518.054,683,541.836,683Z"/>
  <circle id="Olho_esq" data-name="Olho esq" fill="#404040" class="cls-5" cx="397.328" cy="625.047" r="44.734"/>
  <circle id="Olho_dir" data-name="Olho dir" fill="#404040" class="cls-5" cx="682.515" cy="625.047" r="44.735"/>
  <path id="brilho_dir" data-name="brilho dir" fill="#fff" class="cls-1" d="M697.412,591.259a18.771,18.771,0,1,1-18.639,18.771A18.705,18.705,0,0,1,697.412,591.259Z"/>
  <path id="brilho_esq" data-name="brilho esq" fill="#fff" class="cls-1" d="M409.437,591.259A18.771,18.771,0,1,1,390.8,610.03,18.705,18.705,0,0,1,409.437,591.259Z"/>
</svg>
