<svg xmlns="http://www.w3.org/2000/svg" width="1080" height="1080" viewBox="0 0 1080 1080">
  <path id="Orelha_esq" data-name="Orelha esq" fill="#06c2b5" class="cls-1" d="M162,398.99a125,125,0,1,1-125,125A125,125,0,0,1,162,398.99Z"/>
  <path id="Ouvido_esq" data-name="Ouvido esq" fill="#fff" class="cls-2" d="M160,427.989a95,95,0,1,1-95,95A95,95,0,0,1,160,427.989Z"/>
  <path id="Orelha_dir" data-name="Orelha dir" fill="#06c2b5" class="cls-1" d="M918,398.99a125,125,0,1,0,125,125A125,125,0,0,0,918,398.99Z"/>
  <path id="Ouvido_dir" data-name="Ouvido dir" fill="#fff" class="cls-2" d="M920,427.989a95,95,0,1,0,95,95A95,95,0,0,0,920,427.989Z"/>
  <path id="Cabeça" fill="#06c2b5" class="cls-1" d="M548,947.969c-114.93,1.343-197.35-29.73-246-60-62.93-39.152-98.824-82.9-119-118.995-21.783-38.969-38.817-91.017-39-160.994-0.324-123.763,64.83-223.639,122-281.989,54.712-55.842,106.891-83.578,152-98,28.918-9.243,70.449-16.074,118-16,93.038,0.146,163.293,24.539,204,48,46.758,26.946,101.612,74.188,148,161.994,50.413,95.423,59.021,176.247,48,241.991a320,320,0,0,1-42,114c-22.63,37.052-59.48,78.664-124,116C725.124,919.936,649.017,946.788,548,947.969Z"/>
  <path id="Forma_8" data-name="Forma 8" fill="#06c2b5" class="cls-1" d="M431,231a67.44,67.44,0,0,0,26-22,68.175,68.175,0,0,0,9-19c3.246-10.531,3.742-19.535,3-26a48.02,48.02,0,0,0-5-17,42.025,42.025,0,0,0-14-15l13,2a97.84,97.84,0,0,1,50,21c15.4,12.5,25.541,27.485,30,43a75.177,75.177,0,0,1,2,9l3-9a109.928,109.928,0,0,0-5-23c-2.63-7.875-6.189-15-9-19a62.065,62.065,0,0,0-15-15l20,5c29.172,6.154,51.306,17.817,67,35,10.356,11.338,23.636,48.686,48,58,8.442,3.226,16.435,1.43,26,7,16.844,9.807,26.92,32.366,24,51-2.993,19.1-24.728,40.406-76,57-38.969,12.611-68.226,9.362-115,8-67.665-1.97-106.285,1.775-125-25-5.18-7.41-10.737-27.444-12-51a64.2,64.2,0,0,1,3-24c3.013-9.195,8.164-15.783,11-18,6.757-5.281,13.133-4.9,23-7A76.856,76.856,0,0,0,431,231Z"/>
  <path id="Rosto" fill="#fff" class="cls-2" d="M544,929.969c-37.707,1.045-70.338-1.411-99-7a408.24,408.24,0,0,1-95-31l-14-18a254.183,254.183,0,0,1-22-66,244.66,244.66,0,0,1,0-92,233.893,233.893,0,0,1,8-30l-38-42a159.326,159.326,0,0,1,6-191.992c21.406-26.645,56.637-53.137,102-58,56.12-6.014,113.294,22.107,148,74l16-22a154.879,154.879,0,0,1,126-52c50.95,3.347,93.087,31.481,118,68,33.694,49.388,30.5,104.721,18,141.995-10.689,31.884-31.035,59.437-58,80l6,26a220.719,220.719,0,0,1,6,72c-1.475,17.98-7.707,44.741-18,72a346.916,346.916,0,0,1-16,36l-28,14C654.93,919.38,599.105,928.443,544,929.969Z"/>
  <path id="Boca" fill="#404040" stroke="#363636" stroke-width="4px" class="cls-3"  d="M538.707,709.473s7.548-8.506,6.222,0,0,26.02,0,26.02a35.3,35.3,0,0,0,62.84,5.575h1.867l1.244,1.239v1.859a39.646,39.646,0,0,1-68.44-4.956H541.2c-7.007,14.107-21.088,22.947-36.087,22.921a40.2,40.2,0,0,1-31.731-16.107l-1.244-3.1,0.622-1.859,1.244-.619,1.245,0.619A36.516,36.516,0,0,0,505.109,757.8c21.518,0.285,31.962-17.243,33.574-22.217C541.923,723.979,531.889,674.994,538.707,709.473Z"/>
  <path id="Boca_copiar" data-name="Boca copiar" fill="#404040" stroke="#363636" stroke-width="4px" class="cls-3" d="M544.307,712.331s-7.548-8.507-6.222,0,0,26.019,0,26.019a35.3,35.3,0,0,1-62.84,5.575h-1.867l-1.244,1.239v1.859a39.646,39.646,0,0,0,68.44-4.956h1.244c7.007,14.107,21.088,22.947,36.087,22.922a40.2,40.2,0,0,0,31.731-16.107l1.244-3.1-0.622-1.859-1.244-.619-1.245.619a36.516,36.516,0,0,1-29.864,16.727c-21.518.286-31.962-17.242-33.574-22.216C541.091,726.837,551.125,677.851,544.307,712.331Z"/>
  <path id="Nariz" fill="#404040" class="cls-4" d="M540.6,667.98c20.845,0,47.822,11.637,47.413,22.05s-37.195,26.336-46.6,26.949-47-16.537-47.413-25.724S519.751,667.98,540.6,667.98Z"/>
  <path id="Olho_dir" data-name="Olho dir" fill="#404040" class="cls-4" d="M684.5,499A49.493,49.493,0,1,1,635,548.491,49.5,49.5,0,0,1,684.5,499Z"/>
  <circle id="brilho_dir" data-name="brilho dir" fill="#fff" class="cls-5" cx="701" cy="532" r="20.625"/>
  <path id="Olho_esq" data-name="Olho esq" fill="#404040" class="cls-4" d="M390.521,499A49.493,49.493,0,1,1,341,548.491,49.506,49.506,0,0,1,390.521,499Z"/>
  <circle id="brilho_esq" data-name="brilho esq" fill="#fff" class="cls-5" cx="403.937" cy="532" r="20.625"/>
  <path id="Bochecha_esq" data-name="Bochecha esq" fill="#6dfff9" class="cls-6" d="M234.34,659.505c25.139,0,45.519,13.668,45.519,30.53s-20.38,30.529-45.519,30.529-45.519-13.668-45.519-30.529S209.2,659.505,234.34,659.505Z"/>
  <path id="Bochecha_dir" data-name="Bochecha dir" fill="#6dfff9" class="cls-6" d="M848.588,659.505c25.139,0,45.519,13.668,45.519,30.53s-20.38,30.529-45.519,30.529-45.519-13.668-45.519-30.529S823.449,659.505,848.588,659.505Z"/>
</svg>
